<svg width="55" height="60" viewBox="0 0 55 60" fill="none" xmlns="http://www.w3.org/2000/svg">
<path d="M30.5742 0.164062C28.9219 0.550781 27.8906 1.10156 26.7773 2.21484C25.5352 3.44531 24.7266 4.86328 24.293 6.5625C24.0703 7.45312 24.0938 9.78516 24.3281 10.8984C24.4336 11.3789 24.5625 12.082 24.5977 12.4453L24.6797 13.1016L24.1172 13.1836C20.8477 13.6406 17.7539 14.7656 15.293 16.4062C14.0977 17.2031 12.3516 18.8086 11.6953 19.6992C11.4023 20.0977 11.2266 20.25 11.1328 20.168C10.8164 19.8984 9.08203 19.3242 8.09766 19.1367C6.83203 18.9141 6.38672 18.9727 5.64844 19.4414C5.02734 19.8398 4.48828 20.7891 4.25391 21.8906C4.03125 22.9688 4.18359 26.3203 4.54688 28.3125C4.81641 29.7891 5.60156 33.0938 5.87109 33.8672C5.96484 34.1133 5.84766 34.4297 5.20312 35.6836L4.44141 37.207L3.79688 37.125C2.94141 37.0312 0.820312 37.0078 0.574219 37.1016C0.28125 37.2188 0.0234375 37.8281 0.105469 38.2031C0.246094 38.8477 0.503906 38.9414 2.16797 39.0352C3.01172 39.082 3.72656 39.1406 3.75 39.1758C3.78516 39.1992 3.75 39.375 3.67969 39.5625C3.46875 40.0898 3.09375 42.5039 3.09375 43.2656C3.09375 43.9453 3.08203 43.957 2.71875 44.0859C2.50781 44.168 1.875 44.4492 1.32422 44.7188C0.316406 45.2344 0.046875 45.5156 0.046875 46.0664C0.046875 46.3711 0.65625 46.9922 0.960938 46.9922C1.10156 46.9922 1.64062 46.7812 2.16797 46.5234C3.19922 46.0312 3.31641 46.043 3.32812 46.6406C3.33984 46.8047 3.53906 47.5078 3.77344 48.2227L4.20703 49.5L3.19922 50.5078C2.48438 51.2227 2.09766 51.7148 1.82812 52.2773C0.398438 55.2422 1.11328 57.5977 3.85547 58.957C5.30859 59.6836 6.67969 59.918 9.24609 59.9297C11.707 59.9297 12.4922 59.7656 14.3203 58.875L15.4219 58.3477L16.7812 58.6992C20.2852 59.6016 23.0156 59.9297 27.0586 59.9297C31.1016 59.9297 33.832 59.6016 37.3359 58.6992L38.6953 58.3477L39.7969 58.875C41.625 59.7656 42.4102 59.9297 44.8711 59.9297C47.4258 59.918 48.75 59.6836 50.2383 58.9688C52.9922 57.6211 53.7188 55.2539 52.2891 52.2773C52.0195 51.7148 51.6328 51.2227 50.9062 50.4961L49.8867 49.4766L50.1211 48.9141C50.2383 48.5977 50.4727 47.8477 50.625 47.2383C50.7773 46.6289 50.9297 46.1133 50.9531 46.0898C50.9766 46.0547 51.4219 46.2539 51.9492 46.5117C52.4648 46.7812 53.0039 46.9922 53.1445 46.9922C53.4492 46.9922 54.0703 46.3828 54.0703 46.0664C54.0703 45.5156 53.8008 45.2344 52.793 44.7188C52.2422 44.4492 51.6094 44.168 51.4102 44.0859C51.0352 43.957 51.0234 43.9453 51.0234 43.2656C51.0234 42.5039 50.6484 40.0898 50.4375 39.5625C50.3672 39.375 50.332 39.1992 50.3672 39.1758C50.3906 39.1406 51.1055 39.082 51.9492 39.0352C53.6133 38.9414 53.8711 38.8477 54.0117 38.2031C54.0938 37.8281 53.8359 37.2188 53.543 37.1016C53.2969 37.0078 51.1758 37.0312 50.3203 37.125L49.6758 37.207L48.9258 35.6953L48.1875 34.1836L48.6094 32.6484C50.4141 26.0391 50.5195 21.3984 48.8672 19.7461C48.1875 19.0664 47.543 18.9023 46.3242 19.0898C45.3398 19.2422 44.1094 19.6172 43.3242 20.0156L42.832 20.2734L42.4219 19.6992C41.7539 18.7969 39.9844 17.1797 38.8008 16.4062C36.7969 15.0703 34.1484 13.9688 31.7812 13.5L30.6914 13.2773L30.5625 12C30.4805 11.2969 30.3398 10.2773 30.2227 9.72656C30 8.625 30.0469 7.96875 30.3867 7.28906C30.6914 6.67969 31.3477 6.12891 31.8633 6.02344C32.5898 5.89453 33.8438 6.33984 35.0625 7.17188C35.8125 7.6875 36.3516 7.875 37.0898 7.875C39.3164 7.875 40.6992 5.58984 39.7148 3.5625C39.4688 3.05859 39.2109 2.77734 38.6133 2.33203C37.6172 1.59375 35.7422 0.65625 34.6172 0.351562C33.4805 0.0351562 31.5234 -0.0585938 30.5742 0.164062ZM34.4883 2.41406C35.5078 2.75391 37.125 3.64453 37.6992 4.18359C38.0859 4.57031 38.1211 5.10938 37.7695 5.55469C37.418 6 36.8203 5.97656 36.1289 5.47266C35.332 4.91016 33.832 4.24219 33.0352 4.08984C31.1953 3.75 29.6367 4.51172 28.7109 6.19922C28.0195 7.47656 27.9258 8.39062 28.2773 10.2539C28.4062 10.8984 28.5469 11.7773 28.582 12.2109L28.6641 13.0078H27.668H26.6719L26.6016 12.3281C26.5547 11.9648 26.4141 11.0742 26.2734 10.3711C25.8516 8.08594 26.168 6.32812 27.3047 4.65234C28.9453 2.25 31.5469 1.44141 34.4883 2.41406ZM29.7305 15.1758C34.2422 15.7617 38.1797 17.7422 40.6055 20.6367L41.0625 21.1875L40.207 21.6914C39.75 21.9609 38.7422 22.6055 37.9805 23.1094L36.5977 24.0352L35.7539 23.6953C32.8008 22.4766 29.8008 21.9609 26.2969 22.0664C23.4375 22.1484 21.0117 22.6406 18.5508 23.625L17.5312 24.0234L16.4414 23.2852C15.832 22.875 14.8242 22.2305 14.2031 21.8555L13.0664 21.1758L13.4062 20.7539C14.3086 19.6172 15.7266 18.4453 17.2734 17.5312C20.707 15.4922 25.4062 14.6133 29.7305 15.1758ZM8.21484 21.2109C8.75391 21.3398 9.51562 21.5859 9.91406 21.7734C11.0391 22.2891 13.582 23.7773 15.4453 25.0195C16.4766 25.7109 17.2266 26.1328 17.4141 26.1328C17.5781 26.1328 18.1055 25.9688 18.5742 25.7695C21.6094 24.4688 24.3867 23.9531 27.7031 24.0586C30.5977 24.1523 32.5195 24.5508 35.1445 25.6172C35.8594 25.8984 36.5859 26.1328 36.7734 26.1328C36.9844 26.1328 37.5234 25.8398 38.3438 25.2656C42.5156 22.3945 46.4297 20.5781 47.3789 21.082C47.9766 21.4102 48.2109 23.8945 47.8711 26.4844C47.6484 28.125 47.0859 30.7383 46.6055 32.3789C45.9844 34.5 45.9844 34.4766 46.6758 35.6953C46.9922 36.2695 47.3438 36.9258 47.4375 37.1602L47.6133 37.5703L46.2539 37.9688C44.6953 38.4141 42.1172 39.6445 41.4844 40.2305C41.0391 40.6523 40.9688 40.9688 41.2031 41.4023C41.5781 42.1172 42.0703 42.1172 43.3594 41.3789C44.9648 40.4531 48.1055 39.3164 48.3398 39.5742C48.5391 39.8086 49.1602 43.2773 49.0195 43.418C48.9961 43.4414 48.4688 43.3828 47.8594 43.2891C46.4648 43.0898 44.1211 42.9492 43.7227 43.0547C43.3945 43.1367 43.0547 43.6523 43.0547 44.0625C43.0547 44.2031 43.1953 44.4609 43.3828 44.6367C43.6875 44.9414 43.7812 44.9648 45.1055 45.0352C46.5 45.1172 48.7734 45.4102 48.9023 45.5273C48.9844 45.6211 48.7148 46.8984 48.4102 47.7891C48.1406 48.6211 48.2578 48.5859 46.9805 48.2344C46.0664 47.9766 44.0742 47.9648 43.1133 48.2227C39.6211 49.125 36.8555 52.3945 37.1133 55.3008C37.1602 55.7227 37.2188 56.2148 37.2539 56.3789C37.3359 56.6719 37.3125 56.6836 35.9414 56.9883C32.7305 57.7266 30.7148 57.9375 27.0586 57.9375C23.4023 57.9375 21.3867 57.7266 18.1758 56.9883C16.8047 56.6836 16.7812 56.6719 16.8633 56.3789C16.8984 56.2148 16.957 55.7227 17.0039 55.3008C17.2617 52.3594 14.543 49.1602 11.0039 48.2227C10.0547 47.9648 8.0625 47.9766 7.13672 48.2344C5.89453 48.5742 5.97656 48.5977 5.76562 47.9648C5.50781 47.2266 5.20312 46.0195 5.20312 45.7383C5.20312 45.5391 5.33203 45.4805 6 45.375C7.17188 45.1641 8.80078 45 9.63281 45C10.3008 45 10.418 44.9648 10.7227 44.6602C10.9102 44.4727 11.0625 44.2031 11.0625 44.0625C11.0625 43.6523 10.7227 43.1367 10.3945 43.0547C9.99609 42.9492 7.65234 43.0898 6.25781 43.2891C5.64844 43.3828 5.12109 43.4414 5.09766 43.418C4.95703 43.2773 5.57812 39.8086 5.77734 39.5742C6.01172 39.3164 9.15234 40.4531 10.7578 41.3789C12.0469 42.1172 12.5391 42.1172 12.9141 41.4023C13.3008 40.6875 12.8906 40.207 11.0977 39.293C9.71484 38.5781 8.26172 38.0156 7.11328 37.7344L6.50391 37.5938L6.67969 37.1719C6.77344 36.9258 7.11328 36.2812 7.42969 35.7188C7.75781 35.1445 8.01562 34.5469 8.01562 34.3711C8.01562 34.1836 7.80469 33.3047 7.53516 32.4023C7.00781 30.5508 6.45703 27.9258 6.24609 26.2266C6.05859 24.6094 6.15234 22.0898 6.42188 21.5625C6.78516 20.8828 6.82031 20.8711 8.21484 21.2109ZM10.7227 50.2266C13.2773 50.9766 15.3633 53.5195 15 55.4648C14.8477 56.2734 13.5703 57.293 12.3516 57.5742L12.0586 57.6445V56.1328C12.0586 54.7031 12.0469 54.6094 11.7773 54.3281C11.3789 53.9062 10.7461 53.9062 10.3477 54.3281C10.1016 54.5977 10.0664 54.7383 10.0312 55.875C9.98438 57.5273 9.96094 57.6328 9.48047 57.8555C9.14062 58.0195 9.03516 58.0195 8.70703 57.8906C8.16797 57.668 8.01562 57.1875 8.01562 55.7578C8.01562 54.6914 7.99219 54.5391 7.75781 54.293C7.39453 53.9062 6.73828 53.9297 6.36328 54.3281C6.09375 54.6094 6.08203 54.7031 6.08203 56.1328V57.6445L5.78906 57.5742C4.54688 57.293 3.30469 56.3086 3.14062 55.4883C2.92969 54.3516 3.44531 53.0742 4.54688 51.9609C5.85938 50.6484 7.26562 50.0508 9.02344 50.0391C9.65625 50.0391 10.3359 50.1094 10.7227 50.2266ZM46.6992 50.2266C48.8438 50.8594 50.8008 52.8281 50.9883 54.5508C51.082 55.3711 50.9414 55.875 50.4258 56.4258C50.0039 56.8828 49.043 57.4102 48.3281 57.5742L48.0352 57.6445V56.1328C48.0352 54.7031 48.0234 54.6094 47.7539 54.3281C47.3906 53.9414 46.7578 53.918 46.3711 54.2812C46.125 54.5156 46.1016 54.6328 46.1016 55.7461C46.1016 57.1875 45.9492 57.668 45.4102 57.8906C45.082 58.0195 44.9766 58.0195 44.6367 57.8555C44.1562 57.6328 44.1328 57.5273 44.0859 55.875C44.0508 54.7383 44.0156 54.5977 43.7695 54.3281C43.3711 53.9062 42.7383 53.9062 42.3398 54.3281C42.0703 54.6094 42.0586 54.7031 42.0586 56.1328L42.0703 57.6445L41.7656 57.5742C41.0742 57.4219 39.9961 56.8125 39.6094 56.3438C38.9414 55.5703 38.9062 54.5977 39.4922 53.4023C40.125 52.0781 41.6016 50.8359 43.1367 50.3203C44.1211 49.9805 45.7266 49.9453 46.6992 50.2266Z" fill="#364E14"/>
<path d="M15.0586 35.2851C13.9336 35.5781 13.3946 35.8476 13.1836 36.2226C12.8672 36.7851 13.3477 37.6172 13.9922 37.6172C14.168 37.6172 14.6133 37.5117 15 37.3711C15.3867 37.2305 16.1367 37.1015 16.711 37.0664C18.4219 36.9609 19.2656 37.4297 19.9336 38.8711C20.1446 39.3398 20.4258 39.7734 20.5547 39.8437C20.9531 40.0547 21.375 39.9726 21.75 39.6094C22.1836 39.1758 22.1602 38.8242 21.6563 37.793C21.0235 36.5156 19.9688 35.6015 18.6914 35.2265C17.8125 34.9687 16.1485 34.9922 15.0586 35.2851Z" fill="#364E14"/>
<path d="M34.418 35.2148C32.8125 35.707 31.2891 37.3945 31.125 38.8476C31.0781 39.2812 31.1133 39.3984 31.3711 39.6562C31.957 40.2422 32.7891 39.9375 33.0937 39.0234C33.3047 38.3906 34.0781 37.5234 34.6758 37.2539C35.332 36.9492 36.668 36.9609 37.7227 37.2773C39.0586 37.6758 39.3633 37.6875 39.7031 37.3359C40.0078 37.043 40.0898 36.5742 39.9375 36.1523C39.832 35.8828 39.1289 35.5547 38.0625 35.2734C36.9961 35.0039 35.1914 34.9687 34.418 35.2148Z" fill="#364E14"/>
<path d="M24.4805 41.1797C23.4375 41.6836 22.8984 42.6914 23.1562 43.6875C23.25 44.0859 23.5078 44.4492 24.2227 45.2226C24.75 45.7734 25.3711 46.3594 25.6055 46.5234L26.0508 46.8164L26.0625 48.5742C26.0625 50.1797 26.0391 50.3906 25.8047 50.8594C25.6523 51.1406 25.3945 51.4687 25.2305 51.5976C24.5859 52.0664 23.543 52.0664 22.9102 51.5976C22.2891 51.1289 22.1602 50.8125 22.0781 49.6172C22.0078 48.6211 21.9727 48.457 21.7383 48.2695C21.293 47.9062 20.7188 47.9414 20.3555 48.3516C20.1211 48.6094 20.0859 48.7734 20.0859 49.6875C20.0859 51.0234 20.3789 51.8555 21.1289 52.6523C22.6406 54.2695 25.043 54.4101 26.6836 52.9687L27.082 52.6289L27.3398 52.8984C27.7266 53.3086 28.6172 53.7539 29.3672 53.9062C30.6445 54.164 32.0273 53.6836 32.9883 52.6523C33.7383 51.8555 34.0312 51.0234 34.0312 49.6875C34.0312 48.7734 33.9961 48.6094 33.7734 48.3516C33.3984 47.9414 32.8242 47.9062 32.3789 48.2695C32.1445 48.457 32.1094 48.6211 32.0391 49.6172C31.957 50.8125 31.8281 51.1289 31.207 51.5976C30.5742 52.0664 29.5312 52.0664 28.8867 51.5976C28.7227 51.4687 28.4648 51.1406 28.3242 50.8594C28.0781 50.3906 28.0547 50.1797 28.0547 48.5742L28.0664 46.8164L28.5117 46.5234C28.7461 46.3594 29.3672 45.7734 29.8945 45.2226C30.6094 44.4492 30.8672 44.0859 30.9609 43.6875C31.1836 42.832 30.8086 41.9531 30 41.3906C29.543 41.0742 29.543 41.0742 27.1875 41.0508C25.3477 41.0273 24.75 41.0508 24.4805 41.1797ZM28.9453 43.1367C29.0508 43.3125 27.3398 45 27.0586 45C26.7773 45 25.0664 43.3125 25.1719 43.1367C25.2305 43.0547 25.8281 43.0078 27.0586 43.0078C28.2891 43.0078 28.8867 43.0547 28.9453 43.1367Z" fill="#364E14"/>
</svg>
