<svg width="60" height="60" viewBox="0 0 60 60" fill="none" xmlns="http://www.w3.org/2000/svg">
<path d="M19.5117 0.820312C17.0977 1.71094 16.8047 1.89844 16.9219 2.51953C17.0039 2.90625 17.3789 3.28125 17.6953 3.28125C17.8125 3.28125 18.8555 2.94141 20.0156 2.51953C21.1758 2.09766 22.1953 1.75781 22.2773 1.75781C22.4648 1.75781 24.1406 2.70703 24.1406 2.8125C24.1406 2.84766 23.8242 3.03516 23.4258 3.22266C23.0391 3.41016 22.6758 3.64453 22.6172 3.75C22.5703 3.84375 22.3945 4.45312 22.2305 5.09766C21.3633 8.49609 19.8867 11.6016 17.8359 14.2969C16.9453 15.4688 14.9063 17.5781 14.6602 17.5781C14.5078 17.5781 14.0742 16.3711 12.6094 11.9297C10.7813 6.33984 10.7695 6.28125 10.9805 6C11.1211 5.8125 11.6719 5.54297 12.6563 5.17969C13.9219 4.69922 14.1328 4.58203 14.2266 4.30078C14.3789 3.87891 14.2031 3.39844 13.8164 3.17578C13.5469 3.02344 13.4063 3.04688 12.082 3.51562C11.2969 3.79688 10.4297 4.16016 10.1484 4.33594C9.52734 4.73438 9.09375 5.55469 9.09375 6.32812C9.10547 6.89062 12.5977 17.7773 12.9961 18.457C13.4297 19.2188 14.625 19.5469 15.5273 19.1719C15.9141 19.0078 15.9375 19.0078 15.9961 19.2539C16.0195 19.3945 16.4766 22.2305 17.0039 25.5469C17.8828 31.1484 17.9531 31.7227 17.9766 33.5742C18.0117 35.8242 18.1289 36.4102 18.8555 37.8633L19.2891 38.7656L17.625 42.9609C15.8438 47.4258 14.7305 50.625 13.957 53.4961C13.3945 55.5703 12.6563 58.7695 12.6563 59.1562C12.6563 59.543 13.1602 60 13.582 60C14.0859 60 14.3438 59.5898 14.5781 58.3945C15.3164 54.6562 16.6172 50.332 18.3984 45.7266L18.7734 44.7539L19.2422 45.1758C20.3203 46.1602 22.3711 47.2734 24.1992 47.8594C25.2188 48.1992 27.1406 48.5742 28.3945 48.6914L29.1914 48.7734L29.1563 49.1836C29.1211 49.5586 29.0742 49.6055 28.5703 49.7812C27.375 50.2031 26.4844 51.1055 26.0039 52.3711C25.6641 53.2852 25.7227 54.6328 26.168 55.5586C26.5664 56.3789 27.4453 57.2227 28.3359 57.6328C28.8984 57.8906 29.168 57.9492 30 57.9492C31.207 57.9492 32.0156 57.6211 32.9297 56.7656C34.4531 55.3359 34.6523 52.957 33.3867 51.2227C32.9883 50.6602 32.1914 50.0625 31.4883 49.793C31.0547 49.6172 30.9961 49.5469 30.9609 49.1836L30.9258 48.7734L31.7227 48.6914C35.3906 48.3398 38.8594 46.9922 40.7578 45.1992C40.9922 44.9648 41.1797 44.8828 41.25 44.9531C41.3086 45.0117 41.7539 46.1367 42.2461 47.4609C43.1484 49.8867 43.3711 50.2734 43.8867 50.2734C44.2734 50.2734 44.7656 49.8398 44.7656 49.5C44.7656 49.1133 44.0156 47.0625 42.2109 42.5391L40.6992 38.7656L41.1445 37.875C41.8242 36.5391 42.1055 35.1211 42.0352 33.4922C41.9883 32.2617 42.0586 31.7109 42.9727 25.8398C43.5117 22.3594 43.9805 19.3945 44.0039 19.2539C44.0625 19.0078 44.0859 19.0078 44.4727 19.1719C45.375 19.5469 46.5703 19.2188 47.0039 18.457C47.1211 18.2578 48.0469 15.5742 49.0547 12.4805C50.4141 8.34375 50.8945 6.71484 50.8945 6.30469C50.8828 5.55469 50.4727 4.74609 49.9102 4.37109C49.6641 4.20703 46.9219 3.15234 43.8047 2.02734C36.9844 -0.445312 37.6992 -0.363281 35.25 1.06641L33.6094 2.02734L32.4023 1.83984C30.8672 1.58203 29.1328 1.58203 27.5977 1.83984L26.4023 2.02734L24.75 1.06641C22.4648 -0.269531 22.4648 -0.269531 19.5117 0.820312ZM43.2891 3.70312C46.2539 4.78125 48.7852 5.74219 48.9023 5.85938C49.0195 5.96484 49.125 6.16406 49.1367 6.30469C49.1367 6.43359 48.3398 9.02344 47.3438 12.0586C45.9609 16.2773 45.4922 17.5781 45.3516 17.5781C45.1289 17.5781 43.1836 15.6094 42.3398 14.5312C41.5664 13.5352 40.5938 12.0234 39.9258 10.7812C39 9.05859 38.4023 7.42969 37.5586 4.30078C37.3828 3.63281 37.3594 3.62109 36.6211 3.25781C36.1992 3.04688 35.8594 2.84766 35.8594 2.8125C35.8594 2.70703 37.5352 1.75781 37.7227 1.75781C37.8047 1.75781 40.3125 2.63672 43.2891 3.70312ZM32.1445 3.57422C33.1641 3.75 35.1914 4.41797 35.6719 4.72266C35.8477 4.85156 35.9766 5.10938 36.082 5.58984C36.8906 9.24609 39.5039 14.2031 42.0703 16.9336L42.5156 17.4023L41.6484 22.9102C41.168 25.9336 40.7578 28.5234 40.7227 28.6641C40.6758 28.875 40.4766 28.7227 39.3398 27.6094C38.6133 26.8945 37.8633 26.2383 37.6992 26.1445C37.2891 25.9336 36.8555 26.0625 36.5273 26.5078C36.1875 26.9531 36.3398 27.2344 37.5703 28.3945C38.7422 29.4961 39.5039 30.5156 39.9258 31.5469C40.3242 32.5195 40.4297 34.3711 40.1484 35.5078C39.8086 36.8555 39.1875 37.9219 38.0859 39.0352C37.2773 39.8555 36.9023 40.1367 36.0938 40.5352C34.3945 41.3672 32.5078 41.5898 31.7813 41.0508C31.0898 40.5352 30.9375 40.1484 30.9375 38.8594V37.6758L31.3242 37.4297C31.5938 37.2539 32.0977 36.5039 33.1523 34.6875C34.6641 32.0859 34.8164 31.6875 34.6406 30.7617C34.2539 28.7109 29.5547 27.7969 26.7188 29.2383C25.6641 29.7773 25.2188 30.5742 25.3359 31.6875C25.418 32.4023 28.1484 37.0781 28.6758 37.4297L29.0625 37.6758V38.8242C29.0625 40.1367 28.9336 40.4766 28.2891 40.9688C27.4805 41.5898 25.7109 41.4141 23.9063 40.5352C22.0195 39.6094 20.3789 37.5938 19.8633 35.5664C19.6406 34.6758 19.6406 33.0586 19.8633 32.1914C20.2148 30.8438 21.2578 29.25 22.7227 27.832C23.4141 27.1641 23.4961 26.7656 23.0273 26.3086C22.5234 25.793 22.2305 25.9102 21.0586 27.0352C20.4844 27.6094 19.8633 28.2656 19.6758 28.5117C19.3594 28.9453 19.3477 28.957 19.2773 28.6875C19.2422 28.5469 18.832 25.9336 18.3516 22.9102L17.4844 17.4023L17.9297 16.9336C20.5195 14.1562 23.1094 9.25781 23.918 5.58984C24.0234 5.10938 24.1523 4.85156 24.3281 4.72266C24.7734 4.42969 26.8242 3.75 27.7617 3.58594C28.957 3.36328 30.9258 3.36328 32.1445 3.57422ZM31.9219 30.5742C32.7422 30.8672 32.9297 31.0078 32.9297 31.3359C32.918 31.6406 30.4805 35.8477 30.2109 36.0234C30.0586 36.1172 29.9414 36.1172 29.8008 36.0234C29.5078 35.8477 27.082 31.6406 27.0703 31.3242C27.0703 31.1719 27.1875 30.9844 27.3398 30.8906C27.5977 30.7266 28.5352 30.4102 29.0625 30.3047C29.6484 30.1875 31.2422 30.3398 31.9219 30.5742ZM23.1445 42.1289C23.7305 42.4102 24.457 42.7031 24.7617 42.7852C25.0898 42.8672 25.3594 43.0078 25.3945 43.1133C25.6641 44.0273 26.2734 44.7656 27.1172 45.2109C27.7031 45.5273 27.75 45.5273 30 45.5273C32.25 45.5273 32.2969 45.5273 32.8828 45.2109C33.7266 44.7656 34.3359 44.0273 34.6055 43.1133C34.6406 43.0078 34.9688 42.8555 35.4023 42.7266C36.4336 42.4453 37.7695 41.7188 38.6836 40.9688L39.457 40.3242L39.9844 41.6602L40.5234 43.0078L39.7734 43.7109C35.0859 48.082 25.0078 48.0703 20.2148 43.6758L19.4766 43.0078L20.0156 41.6719L20.543 40.3242L21.3164 40.9688C21.7383 41.332 22.5703 41.8477 23.1445 42.1289ZM30.3984 42.1758C30.7617 42.5508 31.5703 42.9375 32.2617 43.0664C32.6367 43.1367 32.6836 43.1719 32.5547 43.3359C32.2266 43.7227 31.6758 43.8281 30 43.8281C28.3242 43.8281 27.7734 43.7227 27.4453 43.3359C27.3164 43.1719 27.3633 43.1367 27.7383 43.0664C28.4297 42.9375 29.2383 42.5508 29.6016 42.1758C29.7773 41.9883 29.9648 41.8359 30 41.8359C30.0352 41.8359 30.2227 41.9883 30.3984 42.1758ZM29.1797 51.8555C29.1797 52.3008 29.5078 52.7227 29.8594 52.7461C30.5742 52.793 30.832 52.5938 30.9258 51.9141L30.9961 51.4219L31.4766 51.7734C33.1406 52.9805 32.5898 55.6172 30.5625 56.1562C28.5938 56.6719 26.8945 54.5039 27.7852 52.6406C28.0078 52.1836 28.8047 51.4453 29.0859 51.4453C29.1328 51.4453 29.1797 51.6328 29.1797 51.8555Z" fill="black"/>
<path d="M21.9492 16.9805C20.7304 17.4023 20.1679 18.0937 20.5547 18.7031C20.9297 19.2656 21.2344 19.3008 22.0898 18.8672C22.7109 18.5508 22.9336 18.4922 23.3789 18.5391C24.1523 18.6328 24.7265 19.0664 25.1719 19.8984C25.3828 20.2851 25.6289 20.6367 25.7344 20.6719C26.3672 20.918 27.0703 20.5547 27.0703 19.9805C27.0703 19.3476 26.1797 18.0234 25.4062 17.4844C24.3867 16.7812 23.0742 16.5937 21.9492 16.9805Z" fill="black"/>
<path d="M35.6953 16.9453C34.5821 17.2969 33.6914 18.1172 33.1524 19.2773C32.8711 19.8867 32.8711 20.2148 33.1641 20.5078C33.3985 20.7422 33.9024 20.8125 34.2656 20.6719C34.3711 20.6367 34.6172 20.2851 34.8281 19.8984C35.2852 19.0547 35.8594 18.6211 36.6563 18.5508C37.1133 18.5039 37.3242 18.5625 37.8985 18.8555C38.2735 19.0547 38.6602 19.2187 38.7539 19.2187C39 19.2187 39.6094 18.5742 39.6094 18.3047C39.6094 17.9297 39.0821 17.3906 38.4141 17.1094C37.6172 16.7695 36.4688 16.6992 35.6953 16.9453Z" fill="black"/>
<path d="M44.918 52.9688C44.7774 53.0273 44.5781 53.2031 44.4727 53.3555C44.3086 53.6133 44.332 53.7773 44.8125 55.793C45.1055 56.9766 45.3984 58.2891 45.4805 58.7109C45.6445 59.5547 45.9844 60 46.4649 60C46.8281 60 47.3438 59.5195 47.3438 59.1797C47.3438 58.4063 46.1016 53.4375 45.8438 53.1914C45.5742 52.9219 45.2344 52.8516 44.918 52.9688Z" fill="black"/>
</svg>
