<svg width="60" height="58" viewBox="0 0 60 58" fill="none" xmlns="http://www.w3.org/2000/svg">
<path d="M9.46875 3.03124C5.15625 5.65624 7.3125 6.21874 12.0938 3.68749C17.25 1.06249 17.7188 2.46874 14.625 11.2812C10.875 22.0625 7.6875 23.9375 3.75 17.5625C1.3125 13.5312 1.40625 10.8125 3.9375 8.37499C5.4375 6.96874 5.625 6.49999 4.5 6.49999C2.4375 6.49999 0 9.59374 0 12.2187C0 15.4062 3.84375 21.7812 6.375 22.9062C7.96875 23.6562 8.4375 24.5937 8.4375 27.3125C8.4375 29.2812 8.90625 30.875 9.375 30.875C9.9375 30.875 10.3125 29.1875 10.3125 27.125C10.3125 24.875 11.1562 22.25 12.4688 20.2812C13.6875 18.5 15.4688 14.6562 16.3125 11.6562C18.375 5.28124 19.5938 4.62499 30 4.62499C40.4062 4.62499 41.625 5.28124 43.6875 11.6562C44.5312 14.6562 46.3125 18.5 47.5312 20.2812C50.1562 24.125 50.4375 30.3125 48.1875 33.6875C47.25 35 44.9062 37.8125 42.8438 39.9687C38.4375 44.5625 38.5312 45.9687 42.8438 42.5C47.625 38.8437 51.5625 32.0937 51.5625 27.6875C51.5625 24.5937 51.9375 23.6562 53.625 22.9062C56.1562 21.7812 60 15.4062 60 12.3125C60 10.0625 55.4062 4.62499 53.5312 4.62499C51.6562 4.62499 52.5 6.49999 54.8438 7.62499C58.125 9.12499 58.875 12.6875 56.625 16.7187C52.5938 24.125 49.3125 22.5312 45.375 11.2812C42.4688 2.84374 42.75 1.06249 46.9688 3.21874C50.3438 4.99999 51.8438 4.34374 49.125 2.28124C46.9688 0.593739 42.5625 0.499989 41.9062 1.99999C41.3438 3.68749 18.5625 3.59374 18 1.99999C17.4375 0.312489 13.0312 0.781239 9.46875 3.03124Z" fill="#364E14"/>
<path d="M19.0313 11.8438C16.5938 12.7812 17.9063 13.5312 22.0313 13.5312C26.3438 13.5312 27.4688 12.7812 24.75 11.75C23.0625 11.0938 20.7188 11.0938 19.0313 11.8438Z" fill="#364E14"/>
<path d="M34.9688 11.8438C32.5313 12.7812 33.8438 13.5312 37.9688 13.5312C42.2813 13.5312 43.4063 12.7812 40.6875 11.75C39 11.0938 36.6563 11.0938 34.9688 11.8438Z" fill="#364E14"/>
<path d="M18.2812 19.625C17.9062 20.1875 19.0312 20.5625 21 20.5625C22.875 20.5625 24.375 20.0938 24.375 19.625C24.375 19.0625 23.1562 18.6875 21.6562 18.6875C20.0625 18.6875 18.5625 19.0625 18.2812 19.625Z" fill="#364E14"/>
<path d="M35.625 19.625C35.625 20.0938 37.125 20.5625 39 20.5625C40.9687 20.5625 42.0937 20.1875 41.7187 19.625C41.4375 19.0625 39.9375 18.6875 38.3437 18.6875C36.8437 18.6875 35.625 19.0625 35.625 19.625Z" fill="#364E14"/>
<path d="M27.1875 22.3438C23.7187 23.2812 23.3437 27.6875 26.7187 29C29.9062 30.2188 29.7187 33.9688 26.3437 34.4375C22.2187 35.0938 19.7812 33.7812 17.7187 29.8438C16.6875 27.6875 15.5625 26.1875 15.2812 26.4688C14.4375 27.3125 15.9375 30.5938 18.75 34.1562C21.375 37.4375 23.25 42.6875 22.125 43.7188C21.8437 44 19.0312 41.6562 15.9375 38.4688C12.8437 35.2812 10.3125 33.125 10.3125 33.6875C10.3125 35.5625 14.9062 40.9062 18.75 43.5312C22.125 45.875 22.5 46.5312 22.5 50.1875C22.5 54.9688 24.8437 57.125 30 57.125C36 57.125 37.2187 55.4375 37.5937 46.4375C37.875 39.9688 38.3437 38 40.0312 35.8438C43.125 32 45.1875 28.0625 44.7187 26.8438C44.5312 26.1875 43.4062 27.5 42.2812 29.6562C40.2187 33.7812 37.875 35.0938 33.6562 34.4375C30.375 33.9688 30.0937 30.2188 33.1875 29C34.875 28.3438 35.625 27.4062 35.625 25.8125C35.625 24.5 35.3437 23.2812 34.9687 23.0938C33.2812 22.1562 29.3437 21.7812 27.1875 22.3438ZM32.25 23.9375C34.3125 24.7812 34.125 26.8438 31.875 27.5938C29.4375 28.3438 26.25 27.3125 26.25 25.7188C26.25 23.75 29.4375 22.8125 32.25 23.9375ZM35.7187 36.5C36.75 36.5 37.2187 36.9688 37.0312 37.625C36.4687 39.125 24.2812 39.3125 23.25 37.9062C22.4062 36.7812 27.5625 35.5625 31.3125 36.125C32.8125 36.3125 34.7812 36.5 35.7187 36.5ZM29.0625 44.9375C29.0625 47.4688 29.5312 49.625 30 49.625C30.5625 49.625 30.9375 47.4688 30.9375 44.8438C30.9375 40.4375 31.125 40.1562 33.0937 40.4375C34.9687 40.7188 35.1562 41.1875 35.1562 47.2812C35.1562 53.4688 35.0625 53.8438 32.625 55.0625C30.4687 56.0938 29.5312 56.0938 27.375 55.0625C25.125 53.9375 24.8437 53.2812 24.5625 48.3125C24.1875 41.6562 24.6562 40.25 27.1875 40.25C28.7812 40.25 29.0625 40.8125 29.0625 44.9375Z" fill="#364E14"/>
</svg>
