<svg width="60" height="60" viewBox="0 0 60 60" fill="none" xmlns="http://www.w3.org/2000/svg">
<path d="M30 52.397L26.375 49.147C22.1667 45.3553 18.6875 42.0845 15.9375 39.3345C13.1875 36.5845 11 34.1157 9.375 31.9282C7.75 29.7407 6.61458 27.7303 5.96875 25.897C5.32292 24.0636 5 22.1886 5 20.272C5 16.3553 6.3125 13.0845 8.9375 10.4595C11.5625 7.83447 14.8333 6.52197 18.75 6.52197C20.9167 6.52197 22.9792 6.98031 24.9375 7.89697C26.8958 8.81364 28.5833 10.1053 30 11.772C31.4167 10.1053 33.1042 8.81364 35.0625 7.89697C37.0208 6.98031 39.0833 6.52197 41.25 6.52197C45.1667 6.52197 48.4375 7.83447 51.0625 10.4595C53.6875 13.0845 55 16.3553 55 20.272C55 22.1886 54.6771 24.0636 54.0313 25.897C53.3854 27.7303 52.25 29.7407 50.625 31.9282C49 34.1157 46.8125 36.5845 44.0625 39.3345C41.3125 42.0845 37.8333 45.3553 33.625 49.147L30 52.397ZM30 45.647C34 42.0636 37.2917 38.9907 39.875 36.4282C42.4583 33.8657 44.5 31.6366 46 29.7407C47.5 27.8449 48.5417 26.1574 49.125 24.6782C49.7083 23.1991 50 21.7303 50 20.272C50 17.772 49.1667 15.6886 47.5 14.022C45.8333 12.3553 43.75 11.522 41.25 11.522C39.2917 11.522 37.4792 12.0741 35.8125 13.1782C34.1458 14.2824 33 15.6886 32.375 17.397H27.625C27 15.6886 25.8542 14.2824 24.1875 13.1782C22.5208 12.0741 20.7083 11.522 18.75 11.522C16.25 11.522 14.1667 12.3553 12.5 14.022C10.8333 15.6886 10 17.772 10 20.272C10 21.7303 10.2917 23.1991 10.875 24.6782C11.4583 26.1574 12.5 27.8449 14 29.7407C15.5 31.6366 17.5417 33.8657 20.125 36.4282C22.7083 38.9907 26 42.0636 30 45.647Z" fill="#364E14"/>
</svg>
