<svg width="79" height="69" viewBox="0 0 79 69" fill="none" xmlns="http://www.w3.org/2000/svg">
<path d="M49.2802 12.8205C49.2802 12.9155 49.2802 13.0106 49.2802 13.1086C49.3635 13.1234 49.4468 13.1383 49.5326 13.1536C50.639 13.4629 51.7312 14.2118 52.3182 15.1573C52.7772 16.4125 52.5897 17.8854 52.0522 19.0889C51.7364 19.6708 51.4003 20.2462 50.9482 20.7432C50.8481 20.7432 50.748 20.7432 50.6449 20.7432C50.6449 20.8383 50.6449 20.9334 50.6449 21.0313C50.4341 21.2119 50.4341 21.2119 50.1521 21.4004C50.0606 21.463 49.9692 21.5256 49.8749 21.5901C49.1831 21.9735 48.3815 22.0044 47.6093 21.8242C46.8709 21.5867 46.3505 21.2599 45.7927 20.7432C45.7927 20.6481 45.7927 20.5531 45.7927 20.4551C45.6926 20.4551 45.5926 20.4551 45.4894 20.4551C45.4394 20.265 45.3894 20.0748 45.3378 19.8789C45.2377 19.8789 45.1377 19.8789 45.0346 19.8789C44.7844 19.4036 44.5342 18.9282 44.2764 18.4384C44.5241 19.33 44.7852 20.0435 45.3396 20.8017C45.4894 21.0313 45.4894 21.0313 45.4894 21.3194C45.5895 21.3194 45.6896 21.3194 45.7927 21.3194C45.7927 21.4145 45.7927 21.5096 45.7927 21.6075C45.8928 21.6075 45.9929 21.6075 46.096 21.6075C46.096 21.7026 46.096 21.7977 46.096 21.8956C46.2273 21.9372 46.3587 21.9788 46.494 22.0217C47.0058 22.1837 47.0058 22.1837 47.4133 22.3548C48.2678 22.5539 49.1507 22.5297 49.9501 22.1567C50.1576 22.0303 50.3615 21.8985 50.5602 21.76C50.7965 21.6075 50.7965 21.6075 51.0998 21.6075C51.0998 21.5124 51.0998 21.4174 51.0998 21.3194C51.1999 21.3194 51.3 21.3194 51.4031 21.3194C51.4031 21.2243 51.4031 21.1293 51.4031 21.0313C51.5032 21.0313 51.6032 21.0313 51.7063 21.0313C51.747 20.9511 51.7876 20.8709 51.8295 20.7882C52.0261 20.4245 52.2256 20.0752 52.4645 19.7349C52.5646 19.7349 52.6646 19.7349 52.7678 19.7349C52.7678 19.6398 52.7678 19.5447 52.7678 19.4468C53.4 19.5171 53.6309 19.8165 54.0187 20.2751C55.6551 22.2513 57.0192 24.5774 57.9126 26.9475C58.0297 27.252 58.1588 27.5524 58.2952 27.8495C60.6841 33.2308 61.7675 40.1016 59.5912 45.6639C59.3602 46.157 59.1124 46.6346 58.833 47.1044C58.7329 47.1044 58.6329 47.1044 58.5298 47.1044C58.4907 47.2115 58.4516 47.3187 58.4113 47.4291C57.8282 48.6771 56.4118 49.4379 55.1577 49.991C53.7656 50.4512 52.4061 50.4754 50.9482 50.4716C50.8365 50.4715 50.7248 50.4714 50.6098 50.4713C48.9305 50.4659 47.3893 50.3783 45.7927 49.8413C45.6933 49.8082 45.5938 49.775 45.4914 49.7408C44.3256 49.3448 43.2107 48.8719 42.1536 48.2568C42.1536 48.1617 42.1536 48.0666 42.1536 47.9687C42.066 47.9538 41.9784 47.939 41.8882 47.9237C41.493 47.8089 41.2478 47.6531 40.9405 47.3925C40.9405 47.2974 40.9405 47.2023 40.9405 47.1044C40.6903 47.0093 40.4401 46.9142 40.1823 46.8163C40.1823 46.7212 40.1823 46.6261 40.1823 46.5282C40.0823 46.5282 39.9822 46.5282 39.8791 46.5282C39.8791 46.4331 39.8791 46.338 39.8791 46.2401C39.779 46.2401 39.6789 46.2401 39.5758 46.2401C39.3269 45.9754 39.0997 45.712 38.8745 45.4298C38.8072 45.3458 38.74 45.2618 38.6707 45.1752C36.512 42.4204 34.8536 38.6483 35.3301 35.1482C35.5256 34.5719 35.7951 34.139 36.2304 33.6987C36.6546 33.5156 36.8669 33.5596 37.3013 33.7077C37.7973 34.0393 37.8935 34.4658 38.0595 35.0042C38.111 35.3363 38.1548 35.6697 38.1922 36.0035C38.5978 39.1928 39.9298 42.4594 42.583 44.5655C44.1686 45.6946 45.9026 46.5953 47.9155 46.5282C47.7475 46.4677 47.7475 46.4677 47.5762 46.4061C46.438 45.9788 45.433 45.4622 44.428 44.7996C44.3123 44.7242 44.1966 44.6488 44.0774 44.5711C43.9929 44.5039 43.9085 44.4367 43.8215 44.3674C43.8215 44.2724 43.8215 44.1773 43.8215 44.0793C43.7214 44.0793 43.6213 44.0793 43.5182 44.0793C41.7846 42.0998 41.3435 40.116 41.547 37.5971C41.7991 36.1423 42.4772 34.7861 43.093 33.4416C43.7873 31.9251 44.0979 30.6103 43.8215 28.9541C43.8043 28.8501 43.7871 28.7461 43.7694 28.639C43.6246 27.9618 43.3267 27.456 42.9153 26.889C42.7601 26.6493 42.7601 26.6493 42.7601 26.3612C42.6715 26.3199 42.583 26.2787 42.4918 26.2363C42.2838 26.1359 42.0781 26.031 41.8769 25.9189C40.7784 25.3282 39.8779 25.4393 38.666 25.6409C37.0357 25.9115 35.834 25.816 34.4203 24.9207C34.4203 24.8256 34.4203 24.7305 34.4203 24.6326C34.3203 24.6326 34.2202 24.6326 34.1171 24.6326C33.909 24.3128 33.7043 23.9918 33.5011 23.6692C33.442 23.5791 33.3828 23.4889 33.3219 23.396C33.0628 22.98 32.8988 22.7003 32.9289 22.2107C33.0728 21.853 33.2367 21.6004 33.5106 21.3194C33.6106 21.3194 33.7107 21.3194 33.8138 21.3194C33.8138 21.2243 33.8138 21.1293 33.8138 21.0313C33.9139 21.0313 34.014 21.0313 34.1171 21.0313C34.1546 20.9524 34.1921 20.8735 34.2308 20.7922C34.5403 20.2419 34.9536 19.7639 35.3491 19.2673C35.9738 18.3956 36.0212 17.5685 36.107 16.5452C36.2158 15.4412 36.4792 14.537 37.2824 13.7028C37.3821 13.5962 37.4818 13.4896 37.5845 13.3798C37.9305 13.0896 38.2306 12.9574 38.666 12.8205C38.666 12.7254 38.666 12.6303 38.666 12.5324C42.1072 9.90935 45.7724 11.1396 49.2802 12.8205ZM38.5144 16.8539C38.5144 16.9489 38.5144 17.044 38.5144 17.142C38.0641 17.0707 38.0641 17.0707 37.6046 16.9979C37.6046 17.2356 37.6046 17.4733 37.6046 17.7182C37.9482 17.9041 37.9482 17.9041 38.3628 18.0063C38.7153 17.8243 38.7153 17.8243 38.9693 17.5741C38.9193 17.3364 38.8692 17.0987 38.8177 16.8539C38.7176 16.8539 38.6175 16.8539 38.5144 16.8539ZM43.9731 17.7182C44.1248 18.2944 44.1248 18.2944 44.1248 18.2944L43.9731 17.7182Z" fill="#060606"/>
<path d="M25.5309 23.9213C26.6647 24.1999 27.7098 24.1096 28.81 23.7683C29.0101 23.7683 29.2103 23.7683 29.4165 23.7683C30.012 24.7306 30.4356 25.6561 30.3263 26.7933C29.987 27.6784 29.4719 28.428 28.9373 29.2157C27.9129 30.8998 28.3631 32.7156 28.8538 34.4966C29.1218 35.4002 29.4434 36.2874 29.7677 37.1739C30.5975 39.461 31.1226 41.8779 30.1747 44.2234C29.3345 45.7509 28.2019 46.2886 26.5355 46.8163C26.198 46.8486 25.8599 46.875 25.5215 46.8973C25.3426 46.9094 25.1638 46.9214 24.9795 46.9339C24.8425 46.9426 24.7055 46.9513 24.5643 46.9603C25.8203 47.118 26.9154 47.1521 28.1466 46.8523C28.247 46.8279 28.3473 46.8035 28.4507 46.7784C29.0369 46.6226 29.51 46.4022 30.023 46.096C30.1231 46.096 30.2232 46.096 30.3263 46.096C30.3263 46.001 30.3263 45.9059 30.3263 45.8079C30.8512 45.3758 30.8512 45.3758 31.2361 45.3758C31.2361 45.2807 31.2361 45.1856 31.2361 45.0877C31.3362 45.0877 31.4362 45.0877 31.5393 45.0877C31.5863 44.9985 31.6332 44.9094 31.6815 44.8176C31.7857 44.6195 31.89 44.4214 31.9942 44.2234C32.0943 44.2234 32.1944 44.2234 32.2975 44.2234C32.3135 44.1476 32.3296 44.0719 32.3461 43.9938C32.4797 43.5444 32.6853 43.1376 32.8851 42.7109C33.3447 41.6861 33.5307 40.6747 33.6583 39.571C33.792 38.4821 33.792 38.4821 34.2687 38.0292C34.7659 38.1107 35.0168 38.2266 35.3301 38.6054C36.1994 40.2205 35.63 42.5414 35.0997 44.1868C34.6168 45.5607 33.8129 46.7806 32.7524 47.8246C32.6023 47.8722 32.4522 47.9197 32.2975 47.9687C32.2975 48.0638 32.2975 48.1588 32.2975 48.2568C31.9766 48.4814 31.6584 48.6863 31.3214 48.887C31.2242 48.9453 31.127 49.0036 31.0269 49.0637C28.5782 50.5103 25.7082 50.8381 22.8661 50.3236C21.7444 50.024 20.8093 49.4683 19.8637 48.833C19.6385 48.6904 19.6385 48.6904 19.4088 48.5449C19.4088 48.4498 19.4088 48.3547 19.4088 48.2568C19.3088 48.2568 19.2087 48.2568 19.1056 48.2568C19.1056 48.1617 19.1056 48.0666 19.1056 47.9687C19.0055 47.9687 18.9054 47.9687 18.8023 47.9687C16.9204 45.5346 16.5389 42.979 16.8666 40.0124C16.9566 39.4802 17.1122 38.9735 17.286 38.4614C17.3317 38.3058 17.3775 38.1502 17.4246 37.9898C17.6989 37.081 18.0476 36.246 18.4736 35.393C18.7643 34.7546 18.9409 34.0959 19.1056 33.4196C19.14 33.28 19.1744 33.1403 19.2098 32.9965C19.407 31.1606 19.2087 29.5488 18.1052 27.9964C17.5632 27.133 17.5502 26.3466 17.5703 25.3708C17.5717 25.2442 17.573 25.1175 17.5744 24.9871C17.578 24.6768 17.5834 24.3666 17.5893 24.0564C17.9663 24.1976 18.3404 24.3415 18.7105 24.4986C19.5466 24.8451 20.1662 25.058 21.0768 24.9207C21.4388 24.7272 21.7684 24.5091 22.105 24.2781C23.2407 23.5297 24.2395 23.5351 25.5309 23.9213ZM25.3225 25.0647C25.3225 25.1598 25.3225 25.2549 25.3225 25.3528C25.0723 25.3528 24.8221 25.3528 24.5643 25.3528C24.6143 25.543 24.6644 25.7331 24.7159 25.929C24.9661 25.8815 25.2163 25.8339 25.4741 25.785C25.5241 25.6424 25.5742 25.4997 25.6257 25.3528C25.5256 25.2577 25.4256 25.1627 25.3225 25.0647Z" fill="#767676"/>
<path d="M24.7159 24.0564C25.1663 24.0564 25.6166 24.0564 26.0806 24.0564C25.9805 24.1514 25.8805 24.2465 25.7773 24.3445C25.8256 24.6482 25.8256 24.6482 25.929 24.9207C25.8289 24.9207 25.7288 24.9207 25.6257 24.9207C25.5757 25.0633 25.5256 25.2059 25.4741 25.3528C25.1739 25.3528 24.8736 25.3528 24.5643 25.3528C24.5143 25.2102 24.4642 25.0676 24.4127 24.9207C24.5127 24.7781 24.6128 24.6354 24.7159 24.4885C24.7159 24.3459 24.7159 24.2033 24.7159 24.0564Z" fill="#7D7D7D"/>
<path d="M28.81 28.0898C29.0101 28.1373 29.2103 28.1848 29.4165 28.2338C29.3164 28.4715 29.2164 28.7092 29.1132 28.9541C28.9631 28.9541 28.813 28.9541 28.6584 28.9541C28.5583 28.859 28.4582 28.7639 28.3551 28.666C28.4051 28.5709 28.4552 28.4758 28.5067 28.3779C28.6068 28.3779 28.7069 28.3779 28.81 28.3779C28.81 28.2828 28.81 28.1877 28.81 28.0898Z" fill="#8C8C8C"/>
<path d="M25.4741 24.3445C25.5742 24.3445 25.6742 24.3445 25.7774 24.3445C25.8274 24.5346 25.8774 24.7248 25.929 24.9207C25.8289 24.9207 25.7288 24.9207 25.6257 24.9207C25.5757 25.0633 25.5256 25.2059 25.4741 25.3528C25.1739 25.3528 24.8736 25.3528 24.5643 25.3528C24.7645 25.3053 24.9646 25.2577 25.1708 25.2088C25.1927 25.0929 25.2146 24.977 25.2372 24.8576C25.3225 24.4885 25.3225 24.4885 25.4741 24.3445Z" fill="#979797"/>
<path d="M34.2687 38.0292C34.5976 38.1021 34.8752 38.1733 35.1785 38.3173C35.1285 38.4124 35.0784 38.5075 35.0269 38.6054C34.6731 38.6054 34.3193 38.6054 33.9655 38.6054C34.0655 38.4153 34.1656 38.2251 34.2687 38.0292Z" fill="#9B9B9B"/>
<path d="M37.9079 13.1086C37.9579 13.2512 38.0079 13.3938 38.0595 13.5407C37.8133 13.7869 37.5602 14.0268 37.3013 14.261C37.2013 14.261 37.1012 14.261 36.9981 14.261C37.2168 13.7761 37.5034 13.4672 37.9079 13.1086Z" fill="#686767"/>
<path d="M1.81958 65.975C1.96969 66.0225 2.11981 66.07 2.27447 66.119C2.27447 66.2616 2.27447 66.4042 2.27447 66.5512C2.07432 66.5036 1.87416 66.4561 1.66795 66.4071C1.71798 66.2645 1.76802 66.1219 1.81958 65.975Z" fill="#C4C4C4"/>
<path d="M78.2418 65.975C78.392 65.975 78.5421 65.975 78.6967 65.975C78.6967 66.1651 78.6967 66.3552 78.6967 66.5512C78.5466 66.5512 78.3965 66.5512 78.2418 66.5512C78.2418 66.361 78.2418 66.1709 78.2418 65.975Z" fill="#CFCFCF"/>
</svg>
