<?xml version="1.0" encoding="UTF-8" standalone="no"?>
<svg
   width="44.006134"
   height="39.537594"
   viewBox="0 0 44.006134 39.537594"
   fill="none"
   version="1.1"
   id="svg9"
   xmlns="http://www.w3.org/2000/svg"
   xmlns:svg="http://www.w3.org/2000/svg">
  <defs
     id="defs9" />
  <path
     d="m 32.518918,1.8061284 c 0,0.095 0,0.1901 0,0.2881 0.0833,0.0148 0.1666,0.0297 0.2524,0.045 1.1064,0.3093 2.1986,1.0582 2.7856,2.0037 0.459,1.2552 0.2715,2.7281 -0.266,3.9316 -0.3158,0.5819 -0.6519,1.1573 -1.104,1.6543 -0.1001,0 -0.2002,0 -0.3033,0 0,0.0951 0,0.1902 0,0.2880996 -0.2108,0.1806 -0.2108,0.1806 -0.4928,0.3691 -0.0915,0.0626 -0.1829,0.1252 -0.2772,0.1897 -0.6918,0.3834 -1.4934,0.4143 -2.2656,0.2341 -0.7384,-0.2375 -1.2588,-0.5643 -1.8166,-1.0809996 0,-0.0951 0,-0.1901 0,-0.2881 -0.1001,0 -0.2001,0 -0.3033,0 -0.05,-0.1901 -0.1,-0.3803 -0.1516,-0.5762 -0.1001,0 -0.2001,0 -0.3032,0 -0.2502,-0.4753 -0.5004,-0.9507 -0.7582,-1.4405 0.2477,0.8916 0.5088,1.6051 1.0632,2.3633 0.1498,0.2295996 0.1498,0.2295996 0.1498,0.5176996 0.1001,0 0.2002,0 0.3033,0 0,0.0951 0,0.1902 0,0.2881 0.1001,0 0.2002,0 0.3033,0 0,0.0951 0,0.1902 0,0.2881 0.1313,0.0416 0.2627,0.0832 0.398,0.1261 0.5118,0.162 0.5118,0.162 0.9193,0.3331 0.8545,0.1991 1.7374,0.1749 2.5368,-0.1981 0.2075,-0.1264 0.4114,-0.2582 0.6101,-0.3967 0.2363,-0.1525 0.2363,-0.1525 0.5396,-0.1525 0,-0.0951 0,-0.1901 0,-0.2881 0.1001,0 0.2002,0 0.3033,0 0,-0.0951 0,-0.1901 0,-0.2881 0.1001,0 0.2001,0 0.3032,0 0.0407,-0.0802 0.0813,-0.1603996 0.1232,-0.2430996 0.1966,-0.3637 0.3961,-0.713 0.635,-1.0533 0.1001,0 0.2001,0 0.3033,0 0,-0.0951 0,-0.1902 0,-0.2881 0.6322,0.0703 0.8631,0.3697 1.2509,0.8283 1.6364,1.9761996 3.0005,4.3022996 3.8939,6.6723996 0.1171,0.3045 0.2462,0.6049 0.3826,0.902 2.3889,5.3813 3.4723,12.2521 1.296,17.8144 -0.231,0.4931 -0.4788,0.9707 -0.7582,1.4405 -0.1001,0 -0.2001,0 -0.3032,0 -0.0391,0.1071 -0.0782,0.2143 -0.1185,0.3247 -0.5831,1.248 -1.9995,2.0088 -3.2536,2.5619 -1.3921,0.4602 -2.7516,0.4844 -4.2095,0.4806 -0.1117,-1e-4 -0.2234,-2e-4 -0.3384,-3e-4 -1.6793,-0.0054 -3.2205,-0.093 -4.8171,-0.63 -0.0994,-0.0331 -0.1989,-0.0663 -0.3013,-0.1005 -1.1658,-0.396 -2.2807,-0.8689 -3.3378,-1.484 0,-0.0951 0,-0.1902 0,-0.2881 -0.0876,-0.0149 -0.1752,-0.0297 -0.2654,-0.045 -0.3952,-0.1148 -0.6404,-0.2706 -0.9477,-0.5312 0,-0.0951 0,-0.1902 0,-0.2881 -0.2502,-0.0951 -0.5004,-0.1902 -0.7582,-0.2881 0,-0.0951 0,-0.1902 0,-0.2881 -0.1,0 -0.2001,0 -0.3032,0 0,-0.0951 0,-0.1902 0,-0.2881 -0.1001,0 -0.2002,0 -0.3033,0 -0.2489,-0.2647 -0.4761,-0.5281 -0.7013,-0.8103 -0.0673,-0.084 -0.1345,-0.168 -0.2038,-0.2546 -2.1587,-2.7548 -3.8171,-6.5269 -3.3406,-10.027 0.1955,-0.5763 0.465,-1.0092 0.9003,-1.4495 0.4242,-0.1831 0.6365,-0.1391 1.0709,0.009 0.496,0.3316 0.5922,0.7581 0.7582,1.2965 0.0515,0.3321 0.0953,0.6655 0.1327,0.9993 0.4056,3.1893 1.7376,6.4559 4.3908,8.562 1.5856,1.1291 3.3196,2.0298 5.3325,1.9627 -0.168,-0.0605 -0.168,-0.0605 -0.3393,-0.1221 -1.1382,-0.4273 -2.1432,-0.9439 -3.1482,-1.6065 -0.1157,-0.0754 -0.2314,-0.1508 -0.3506,-0.2285 -0.0845,-0.0672 -0.1689,-0.1344 -0.2559,-0.2037 0,-0.095 0,-0.1901 0,-0.2881 -0.1001,0 -0.2002,0 -0.3033,0 -1.7336,-1.9795 -2.1747,-3.9633 -1.9712,-6.4822 0.2521,-1.4548 0.9302,-2.811 1.546,-4.1555 0.6943,-1.5165 1.0049,-2.8313 0.7285,-4.4875 -0.0172,-0.104 -0.0344,-0.208 -0.0521,-0.3151 -0.1448,-0.6772 -0.4427,-1.183 -0.8541,-1.75 -0.1552,-0.2397 -0.1552,-0.2397 -0.1552,-0.5278 -0.0886,-0.0413 -0.1771,-0.0825 -0.2683,-0.1249 -0.208,-0.1004 -0.4137,-0.2053 -0.6149,-0.3174 -1.0985,-0.5907 -1.999,-0.4796 -3.2109,-0.278 -1.6303,0.2706 -2.832,0.1751 -4.2457,-0.7202 0,-0.0951 0,-0.1902 0,-0.2881 -0.1,0 -0.2001,0 -0.3032,0 -0.2081,-0.3198 -0.4128,-0.6408 -0.616,-0.9634 -0.0591,-0.0901 -0.1183,-0.1803 -0.1792,-0.2732 -0.2591,-0.416 -0.4231,-0.6957 -0.393,-1.1853 0.1439,-0.3577 0.3078,-0.6103 0.5817,-0.8913 0.1,0 0.2001,0 0.3032,0 0,-0.0951 0,-0.1901 0,-0.2881 0.1001,0 0.2002,0 0.3033,0 0.0375,-0.0789 0.075,-0.1577996 0.1137,-0.2390996 0.3095,-0.5503 0.7228,-1.0283 1.1183,-1.5249 0.6247,-0.8717 0.6721,-1.6988 0.7579,-2.7221 0.1088,-1.104 0.3722,-2.0082 1.1754,-2.8424 0.0997,-0.1066 0.1994,-0.2132 0.3021,-0.323 0.346,-0.2902 0.6461,-0.4224 1.0815,-0.5593 0,-0.0951 0,-0.1902 0,-0.2881 3.4412,-2.62305 7.1064,-1.39279996 10.6142,0.2881 z m -10.7658,4.0334 c 0,0.095 0,0.1901 0,0.2881 -0.4503,-0.0713 -0.4503,-0.0713 -0.9098,-0.1441 0,0.2377 0,0.4754 0,0.7203 0.3436,0.1859 0.3436,0.1859 0.7582,0.2881 0.3525,-0.182 0.3525,-0.182 0.6065,-0.4322 -0.05,-0.2377 -0.1001,-0.4754 -0.1516,-0.7202 -0.1001,0 -0.2002,0 -0.3033,0 z m 5.4587,0.8643 c 0.1517,0.5762 0.1517,0.5762 0.1517,0.5762 z"
     fill="#060606"
     id="path1" />
  <path
     d="m 8.7696185,12.906928 c 1.1338,0.2786 2.1788995,0.1883 3.2790995,-0.153 0.2001,0 0.4003,0 0.6065,0 0.5955,0.9623 1.0191,1.8878 0.9098,3.025 -0.3393,0.8851 -0.8544,1.6347 -1.389,2.4224 -1.0244,1.6841 -0.5742,3.4999 -0.0835,5.2809 0.268,0.9036 0.5896,1.7908 0.9139,2.6773 0.8298,2.2871 1.3549,4.704 0.407,7.0495 -0.8402,1.5275 -1.9728,2.0652 -3.6391995,2.5929 -0.3375,0.0323 -0.6756,0.0587 -1.014,0.081 -0.1789,0.0121 -0.3577,0.0241 -0.542,0.0366 -0.137,0.0087 -0.274,0.0174 -0.4152,0.0264 1.256,0.1577 2.3510995,0.1918 3.5822995,-0.108 0.1004,-0.0244 0.2007,-0.0488 0.3041,-0.0739 0.5862,-0.1558 1.0593,-0.3762 1.5723,-0.6824 0.1001,0 0.2002,0 0.3033,0 0,-0.095 0,-0.1901 0,-0.2881 0.5249,-0.4321 0.5249,-0.4321 0.9098,-0.4321 0,-0.0951 0,-0.1902 0,-0.2881 0.1001,0 0.2001,0 0.3032,0 0.047,-0.0892 0.0939,-0.1783 0.1422,-0.2701 0.1042,-0.1981 0.2085,-0.3962 0.3127,-0.5942 0.1001,0 0.2002,0 0.3033,0 0.016,-0.0758 0.0321,-0.1515 0.0486,-0.2296 0.1336,-0.4494 0.3392,-0.8562 0.539,-1.2829 0.4596,-1.0248 0.6456,-2.0362 0.7732,-3.1399 0.1337,-1.0889 0.1337,-1.0889 0.6104,-1.5418 0.4972,0.0815 0.7481,0.1974 1.0614,0.5762 0.8693,1.6151 0.2999,3.936 -0.2304,5.5814 -0.4829,1.3739 -1.2868,2.5938 -2.3473,3.6378 -0.1501,0.0476 -0.3002,0.0951 -0.4549,0.1441 0,0.0951 0,0.1901 0,0.2881 -0.3209,0.2246 -0.6391,0.4295 -0.9761,0.6302 -0.0972,0.0583 -0.1944,0.1166 -0.2945,0.1767 -2.4487,1.4466 -5.3186995,1.7744 -8.1607995,1.2599 -1.1217,-0.2996 -2.0568,-0.8553 -3.0024,-1.4906 -0.2252,-0.1426 -0.2252,-0.1426 -0.4549,-0.2881 0,-0.0951 0,-0.1902 0,-0.2881 -0.1,0 -0.2001,0 -0.3032,0 0,-0.0951 0,-0.1902 0,-0.2881 -0.1001,0 -0.2002,0 -0.3033,0 -1.88190004,-2.4341 -2.26340004,-4.9897 -1.93570004,-7.9563 0.09,-0.5322 0.2456,-1.0389 0.4194,-1.551 0.0457,-0.1556 0.0915,-0.3112 0.1386,-0.4716 0.2743,-0.9088 0.62300004,-1.7438 1.04900004,-2.5968 0.2907,-0.6384 0.4673,-1.2971 0.632,-1.9734 0.0344,-0.1396 0.0688,-0.2793 0.1042,-0.4231 0.1972,-1.8359 -0.0011,-3.4477 -1.1046,-5.0001 -0.54200004,-0.8634 -0.55500004,-1.6498 -0.53490004,-2.6256 0.0014,-0.1266 0.0027,-0.2533 0.0041,-0.3837 0.0036,-0.3103 0.009,-0.6205 0.0149,-0.9307 0.37700004,0.1412 0.75110004,0.2851 1.12120004,0.4422 0.8361,0.3465 1.4557,0.5594 2.3663,0.4221 0.362,-0.1935 0.6916,-0.4116 1.0282,-0.6426 1.1357,-0.7484 2.1345,-0.743 3.4259,-0.3568 z m -0.2084,1.1434 c 0,0.0951 0,0.1902 0,0.2881 -0.2502,0 -0.5004,0 -0.7582,0 0.05,0.1902 0.1001,0.3803 0.1516,0.5762 0.2502,-0.0475 0.5004,-0.0951 0.7582,-0.144 0.05,-0.1426 0.1001,-0.2853 0.1516,-0.4322 -0.1001,-0.0951 -0.2001,-0.1901 -0.3032,-0.2881 z"
     fill="#767676"
     id="path2" />
  <path
     d="m 7.9546185,13.042028 c 0.4504,0 0.9007,0 1.3647,0 -0.1001,0.095 -0.2001,0.1901 -0.3033,0.2881 0.0483,0.3037 0.0483,0.3037 0.1517,0.5762 -0.1001,0 -0.2002,0 -0.3033,0 -0.05,0.1426 -0.1001,0.2852 -0.1516,0.4321 -0.3002,0 -0.6005,0 -0.9098,0 -0.05,-0.1426 -0.1001,-0.2852 -0.1516,-0.4321 0.1,-0.1426 0.2001,-0.2853 0.3032,-0.4322 0,-0.1426 0,-0.2852 0,-0.4321 z"
     fill="#7d7d7d"
     id="path3" />
  <path
     d="m 12.048718,17.075428 c 0.2001,0.0475 0.4003,0.095 0.6065,0.144 -0.1001,0.2377 -0.2001,0.4754 -0.3033,0.7203 -0.1501,0 -0.3002,0 -0.4548,0 -0.1001,-0.0951 -0.2002,-0.1902 -0.3033,-0.2881 0.05,-0.0951 0.1001,-0.1902 0.1516,-0.2881 0.1001,0 0.2002,0 0.3033,0 0,-0.0951 0,-0.1902 0,-0.2881 z"
     fill="#8c8c8c"
     id="path4" />
  <path
     d="m 8.7128185,13.330128 c 0.1001,0 0.2001,0 0.3033,0 0.05,0.1901 0.1,0.3803 0.1516,0.5762 -0.1001,0 -0.2002,0 -0.3033,0 -0.05,0.1426 -0.1001,0.2852 -0.1516,0.4321 -0.3002,0 -0.6005,0 -0.9098,0 0.2002,-0.0475 0.4003,-0.0951 0.6065,-0.144 0.0219,-0.1159 0.0438,-0.2318 0.0664,-0.3512 0.0853,-0.3691 0.0853,-0.3691 0.2369,-0.5131 z"
     fill="#979797"
     id="path5" />
  <path
     d="m 17.507418,27.014828 c 0.3289,0.0729 0.6065,0.1441 0.9098,0.2881 -0.05,0.0951 -0.1001,0.1902 -0.1516,0.2881 -0.3538,0 -0.7076,0 -1.0614,0 0.1,-0.1901 0.2001,-0.3803 0.3032,-0.5762 z"
     fill="#9b9b9b"
     id="path6" />
  <path
     d="m 21.146618,2.0942284 c 0.05,0.1426 0.1,0.2852 0.1516,0.4321 -0.2462,0.2462 -0.4993,0.4861 -0.7582,0.7203 -0.1,0 -0.2001,0 -0.3032,0 0.2187,-0.4849 0.5053,-0.7938 0.9098,-1.1524 z"
     fill="#686767"
     id="path7" />
</svg>
