<svg width="60" height="60" viewBox="0 0 60 60" fill="none" xmlns="http://www.w3.org/2000/svg">
<path d="M44.7656 0.0703125C43.7461 0.199219 42.3164 0.503906 41.4375 0.785156C39.5742 1.37109 37.2774 2.61328 35.8594 3.80859C34.6289 4.83984 14.8242 23.4961 13.8633 24.5273C9.63284 29.0742 5.81252 34.9805 3.21096 41.0039C2.50784 42.6328 2.43752 43.0664 2.8594 43.5586C3.10549 43.8398 3.24612 43.8984 3.96096 43.9453L4.78127 44.0039L2.69534 46.5586C1.40627 48.1289 0.503931 49.3477 0.351587 49.7227C-0.574194 51.8789 0.539087 54.3984 2.75393 55.1602C3.48049 55.4062 4.79299 55.4062 5.49612 55.1484C5.8594 55.0195 5.98831 55.0078 5.94143 55.1133C5.90627 55.1836 5.55471 56.0391 5.15627 56.9883C4.34768 58.9336 4.32424 59.1914 4.95706 59.7188C5.47268 60.1523 5.96487 60.0586 7.47659 59.1797C9.35159 58.1133 10.793 57.0352 12.2696 55.6172C14.6016 53.3789 15.75 51.7734 17.8242 47.8242L19.125 45.3516H21.3164C23.7539 45.3516 23.9063 45.3047 24.211 44.5781C24.3516 44.2383 24.3516 44.1211 24.211 43.7812C23.918 43.0898 23.6953 43.0078 21.9375 43.0078H20.3789L20.9883 41.8359L21.5977 40.6641H39.6328H57.6563V41.8359V43.0078H45.586C37.1719 43.0078 33.4453 43.043 33.2461 43.1367C33.0938 43.207 32.8828 43.4062 32.7774 43.5938C32.4727 44.1094 32.5313 44.5078 32.9766 44.9531L33.375 45.3516H35.9063H38.4375L38.3555 46.0312C38.2969 46.3945 38.2617 47.5664 38.2735 48.6328C38.2969 52.4883 39.211 54.9609 41.3555 56.9883C42.7735 58.3125 44.1914 59.0039 46.5586 59.5195C48.75 59.9883 50.8594 60.1055 53.0977 59.8711C54.3867 59.7422 54.9258 59.5547 55.1719 59.1797C55.4297 58.7695 55.5703 56.168 55.4297 54.5156C55.0782 50.4844 54.0938 47.8125 52.2774 45.9609L51.668 45.3516H55.3711C59.4258 45.3516 59.6016 45.3281 59.8711 44.6719C59.9766 44.4375 60 43.5352 59.9766 41.6133L59.9414 38.8828L59.6133 38.6016L59.2852 38.3203H47.0156H34.7461L34.7813 35.4258C34.8047 33.8203 34.8516 32.4844 34.8985 32.4492C34.9453 32.4141 35.461 32.2969 36.0469 32.1914C37.5 31.9219 38.3906 31.6172 39.9141 30.8789C41.0039 30.3516 41.3906 30.082 42.2344 29.2852C43.8633 27.75 44.6836 26.2969 45.2813 23.9648C45.7149 22.207 45.9375 20.4844 45.9375 18.75V17.2031L46.2071 17.2734C47.8008 17.7539 48.8555 17.9531 49.9922 18.0117L51.3047 18.082L51.3516 18.6914C51.4453 19.8047 52.2539 20.4844 53.2969 20.3438C54.586 20.168 56.6367 18.8086 57.7266 17.4258C59.0274 15.7617 59.6485 13.957 59.6485 11.8477C59.6485 10.3125 59.4375 9.38672 58.7813 8.02734C58.3125 7.04297 58.2774 6.92578 58.336 6.19922C58.418 4.94531 57.9727 4.33594 55.9688 2.94141C54.1641 1.69922 51.8555 0.738281 49.5703 0.292969C48.6094 0.105469 45.6211 -0.0351562 44.7656 0.0703125ZM48.3399 2.47266C50.2383 2.73047 52.1133 3.36328 53.6133 4.24219C54.4336 4.72266 56.0039 5.87109 56.0039 5.97656C56.0039 6.01172 53.2383 7.95703 49.8399 10.3125C45.0352 13.6523 43.6524 14.6719 43.5235 14.9414C43.4063 15.2227 43.4063 15.5156 43.5 16.2305C43.5586 16.7578 43.5938 18.0469 43.5469 19.1602C43.418 23.2266 42.4571 25.9688 40.5703 27.6562C39.9727 28.1953 37.793 29.4141 37.4297 29.4141C37.3477 29.4141 37.6289 28.9102 38.0391 28.3008C39.3164 26.3789 40.1953 24.2344 40.5938 22.0312C40.8164 20.8125 41.0508 17.5312 40.9453 17.1914C40.7461 16.5234 39.9961 16.1484 39.375 16.4062C38.8008 16.6406 38.6602 16.9922 38.5899 18.4336C38.543 19.3711 38.4727 19.8047 38.3438 19.957C38.0156 20.3203 36.293 21.3633 35.2735 21.8086C31.9571 23.2383 29.0156 23.3203 23.3789 22.1484C21.0469 21.668 20.5078 21.5391 20.5078 21.4336C20.5078 21.293 23.1211 19.2305 24.6797 18.1406C27.0117 16.5 29.2852 15.1289 31.5117 14.0156C32.7422 13.3945 33.1641 13.0078 33.1641 12.5156C33.1641 11.5312 32.2617 10.9805 31.3946 11.4375C31.1953 11.5312 31.0196 11.6016 30.9961 11.5781C30.9258 11.5078 37.3594 5.60156 38.1094 5.0625C39.0117 4.39453 40.3946 3.65625 41.4961 3.24609C42.2227 2.96484 44.0742 2.50781 44.8242 2.42578C45.6094 2.32031 47.4961 2.35547 48.3399 2.47266ZM56.7188 9.14062C57.5508 10.7812 57.4922 13.1602 56.5664 14.9414C56.2149 15.6211 54.6328 17.3438 54.375 17.3438C54.293 17.3438 54.2813 17.1914 54.3399 16.8984C54.3867 16.6641 54.4336 15.8555 54.4219 15.1172C54.4102 13.5938 54.1875 12.75 53.4961 11.5781L53.1094 10.9102L54.7032 9.79688C55.5821 9.1875 56.3438 8.68359 56.3907 8.67188C56.4375 8.67188 56.5899 8.88281 56.7188 9.14062ZM51.5742 13.0195C51.9492 13.7344 52.1836 14.6836 52.125 15.2578L52.0899 15.6445L51.0352 15.6797C49.9688 15.7148 48.1875 15.4688 47.5313 15.1875L47.1914 15.0469L49.1133 13.6875C50.168 12.9375 51.0821 12.3398 51.1407 12.3516C51.1992 12.3633 51.3985 12.668 51.5742 13.0195ZM24.9024 24.8555C26.918 25.207 27.3516 25.2539 29.4727 25.2539C30.7617 25.2539 32.0039 25.2188 32.2266 25.1719C32.625 25.0898 32.6367 25.0898 32.3438 25.2539C30.8321 26.1328 25.7227 26.9648 20.7071 27.1406C18.3633 27.2227 14.8828 27.1055 14.8828 26.9414C14.8828 26.8828 15.6446 26.0508 16.5821 25.1016L18.2696 23.3672L20.4727 23.918C21.6797 24.2227 23.6836 24.6445 24.9024 24.8555ZM37.043 25.3477C36.8438 25.8516 35.9531 27.2344 35.3203 28.0195C34.4766 29.0508 33.6797 29.7891 32.3438 30.7852C25.1016 36.1289 17.0156 39.5508 7.99221 41.0859C7.04299 41.2383 6.11721 41.3555 5.94143 41.3438L5.61331 41.3086L6.71487 39.082C7.32424 37.8516 8.33206 36.0352 8.94143 35.0273C10.0313 33.1992 12.3516 29.8594 12.7735 29.4727C12.9727 29.2852 13.1602 29.2852 15.1875 29.4258C18.0352 29.6133 22.6992 29.5078 25.3946 29.1914C29.4258 28.7227 31.3477 28.2891 33.375 27.3984C34.3711 26.9648 36.7969 25.4766 36.9727 25.1953C37.1016 24.9844 37.1485 25.0781 37.043 25.3477ZM32.2735 37.6992C31.8985 38.2852 31.5586 38.332 27.9727 38.2969L24.668 38.2617L26.0742 37.5117C27.7735 36.5977 30.1875 35.168 31.4649 34.3008L32.4024 33.668L32.4375 35.543C32.461 37.1016 32.4375 37.4648 32.2735 37.6992ZM16.6406 45.0117C15.3985 47.3555 14.1094 49.6875 13.7696 50.2148C12.9024 51.5273 11.4141 53.2734 10.4063 54.1641C9.36331 55.0898 8.30862 55.9219 8.25002 55.8633C8.22659 55.8398 9.48049 52.7695 11.0391 49.043L13.8867 42.2695L15.8789 41.6719C16.9805 41.332 18.0821 40.9805 18.3399 40.875C18.5977 40.7695 18.8321 40.6992 18.8438 40.7227C18.8672 40.7461 17.8711 42.6797 16.6406 45.0117ZM9.48049 46.6758L7.9219 50.3789L6.76174 51.3516C5.01565 52.8047 4.74612 52.9688 4.11331 52.9688C2.88284 52.9688 2.03909 51.8086 2.49612 50.7305C2.61331 50.4375 7.28909 44.5664 8.21487 43.5469C8.2969 43.4531 10.9102 42.9023 10.9922 42.9609C11.0156 42.9727 10.3242 44.6484 9.48049 46.6758ZM47.0274 45.6328C48.8203 46.0312 50.4844 47.1914 51.4336 48.6914C52.4414 50.2852 53.086 53.0859 53.086 55.8984V57.5156L51.9492 57.5977C49.8164 57.7617 46.3125 57.2461 44.836 56.543C43.3242 55.8281 42.0586 54.5625 41.3906 53.0859C41.2383 52.7344 41.0039 51.9609 40.8867 51.3867C40.6289 50.1562 40.4414 47.168 40.6289 47.2383C40.6992 47.2617 42.4453 48.9141 44.5196 50.918C46.6641 52.9805 48.4571 54.6211 48.6797 54.7031C49.4883 55.0312 50.3555 54.2695 50.1914 53.3906C50.1211 53.0508 49.3008 52.207 44.3906 47.5078C42.5508 45.75 42.3516 45.5156 42.5742 45.4453C42.9844 45.3047 46.1602 45.4453 47.0274 45.6328Z" fill="#364E14"/>
<path d="M48.5508 5.44922C48.0821 5.64844 47.7422 6.28125 47.8594 6.73828C48 7.28906 48.4336 7.61719 49.0313 7.61719C49.4649 7.61719 49.5938 7.55859 49.8516 7.25391C50.4141 6.59766 50.1797 5.68359 49.3711 5.37891C49.0196 5.25 49.0078 5.25 48.5508 5.44922Z" fill="#364E14"/>
<path d="M27.6445 43.3477C27.2813 43.7109 27.1875 44.3203 27.4219 44.7773C27.5742 45.0586 28.1367 45.3516 28.5469 45.3516C28.957 45.3516 29.6484 44.6602 29.6484 44.25C29.6484 43.1602 28.3945 42.5977 27.6445 43.3477Z" fill="#364E14"/>
</svg>
