<svg width="48" height="48" viewBox="0 0 48 48" fill="none" xmlns="http://www.w3.org/2000/svg">
<path d="M9 28C7.6 28 6.41667 27.5167 5.45 26.55C4.48333 25.5833 4 24.4 4 23C4 21.6 4.48333 20.4167 5.45 19.45C6.41667 18.4833 7.6 18 9 18C10.4 18 11.5833 18.4833 12.55 19.45C13.5167 20.4167 14 21.6 14 23C14 24.4 13.5167 25.5833 12.55 26.55C11.5833 27.5167 10.4 28 9 28ZM18 20C16.6 20 15.4167 19.5167 14.45 18.55C13.4833 17.5833 13 16.4 13 15C13 13.6 13.4833 12.4167 14.45 11.45C15.4167 10.4833 16.6 10 18 10C19.4 10 20.5833 10.4833 21.55 11.45C22.5167 12.4167 23 13.6 23 15C23 16.4 22.5167 17.5833 21.55 18.55C20.5833 19.5167 19.4 20 18 20ZM30 20C28.6 20 27.4167 19.5167 26.45 18.55C25.4833 17.5833 25 16.4 25 15C25 13.6 25.4833 12.4167 26.45 11.45C27.4167 10.4833 28.6 10 30 10C31.4 10 32.5833 10.4833 33.55 11.45C34.5167 12.4167 35 13.6 35 15C35 16.4 34.5167 17.5833 33.55 18.55C32.5833 19.5167 31.4 20 30 20ZM39 28C37.6 28 36.4167 27.5167 35.45 26.55C34.4833 25.5833 34 24.4 34 23C34 21.6 34.4833 20.4167 35.45 19.45C36.4167 18.4833 37.6 18 39 18C40.4 18 41.5833 18.4833 42.55 19.45C43.5167 20.4167 44 21.6 44 23C44 24.4 43.5167 25.5833 42.55 26.55C41.5833 27.5167 40.4 28 39 28ZM13.3 48C11.8 48 10.5417 47.425 9.525 46.275C8.50833 45.125 8 43.7667 8 42.2C8 40.4667 8.59167 38.95 9.775 37.65C10.9583 36.35 12.1333 35.0667 13.3 33.8C14.2667 32.7667 15.1 31.6417 15.8 30.425C16.5 29.2083 17.3333 28.0667 18.3 27C19.0333 26.1333 19.8833 25.4167 20.85 24.85C21.8167 24.2833 22.8667 24 24 24C25.1333 24 26.1833 24.2667 27.15 24.8C28.1167 25.3333 28.9667 26.0333 29.7 26.9C30.6333 27.9667 31.4583 29.1167 32.175 30.35C32.8917 31.5833 33.7333 32.7333 34.7 33.8C35.8667 35.0667 37.0417 36.35 38.225 37.65C39.4083 38.95 40 40.4667 40 42.2C40 43.7667 39.4917 45.125 38.475 46.275C37.4583 47.425 36.2 48 34.7 48C32.9 48 31.1167 47.85 29.35 47.55C27.5833 47.25 25.8 47.1 24 47.1C22.2 47.1 20.4167 47.25 18.65 47.55C16.8833 47.85 15.1 48 13.3 48Z" fill="#1F1F1F"/>
</svg>
