<svg width="60" height="60" viewBox="0 0 60 60" fill="none" xmlns="http://www.w3.org/2000/svg">
<path d="M27.5001 15C30.2615 15 32.5001 12.7614 32.5001 10C32.5001 7.23858 30.2615 5 27.5001 5C24.7387 5 22.5001 7.23858 22.5001 10C22.5001 12.7614 24.7387 15 27.5001 15Z" stroke="black" stroke-width="2" stroke-linecap="round" stroke-linejoin="round"/>
<path d="M45.0001 25C47.7615 25 50.0001 22.7614 50.0001 20C50.0001 17.2386 47.7615 15 45.0001 15C42.2387 15 40.0001 17.2386 40.0001 20C40.0001 22.7614 42.2387 25 45.0001 25Z" stroke="black" stroke-width="2" stroke-linecap="round" stroke-linejoin="round"/>
<path d="M50.0001 45C52.7615 45 55.0001 42.7614 55.0001 40C55.0001 37.2386 52.7615 35 50.0001 35C47.2387 35 45.0001 37.2386 45.0001 40C45.0001 42.7614 47.2387 45 50.0001 45Z" stroke="black" stroke-width="2" stroke-linecap="round" stroke-linejoin="round"/>
<path d="M22.5001 25C24.1416 25 25.7671 25.3233 27.2836 25.9515C28.8002 26.5797 30.1782 27.5004 31.3389 28.6612C32.4997 29.8219 33.4204 31.1999 34.0486 32.7165C34.6768 34.233 35.0001 35.8585 35.0001 37.5V46.25C34.9994 48.3412 34.2499 50.3629 32.8872 51.9491C31.5245 53.5353 29.6387 54.581 27.5716 54.8968C25.5044 55.2126 23.3925 54.7777 21.6183 53.6707C19.8442 52.5638 18.5251 50.8581 17.9001 48.8625C16.8334 45.4208 14.5834 43.1667 11.1501 42.1C9.15556 41.4753 7.45052 40.1573 6.34351 38.3844C5.23649 36.6116 4.80064 34.501 5.11482 32.4347C5.429 30.3684 6.47246 28.4827 8.05637 27.119C9.64029 25.7553 11.66 25.0037 13.7501 25H22.5001Z" stroke="black" stroke-width="2" stroke-linecap="round" stroke-linejoin="round"/>
</svg>
