<svg width="60" height="60" viewBox="0 0 60 60" fill="none" xmlns="http://www.w3.org/2000/svg">
<g clip-path="url(#clip0_31_372)">
<path d="M27.8555 1.20703C26.8828 1.875 20.3086 6.30469 13.2773 11.0625C6.23436 15.8086 0.36327 19.8398 0.234363 20.0039C-0.19923 20.5664 -0.10548 20.8008 1.71093 23.5195C2.64843 24.9258 3.57421 26.2148 3.76171 26.3906C4.33593 26.9414 4.78124 26.8477 6.12889 25.957L7.26561 25.1953V41.4141V57.6328L6.59764 57.6797C6.05858 57.7266 5.8828 57.7969 5.66014 58.0547C5.28514 58.4883 5.29686 59.168 5.67186 59.6133L5.95311 59.9414H30H54.0469L54.3281 59.6133C54.7031 59.168 54.7148 58.4883 54.3398 58.0547C54.1172 57.7969 53.9414 57.7266 53.4023 57.6797L52.7344 57.6328V41.4141V25.1953L53.8711 25.957C55.2187 26.8477 55.6641 26.9414 56.2383 26.3906C56.4258 26.2148 57.3516 24.9141 58.3008 23.4961C59.8828 21.1406 60.0117 20.8945 59.9531 20.5195C59.918 20.2852 59.7422 19.9688 59.5664 19.793C59.2617 19.5117 31.0781 0.433594 30.5039 0.140625C29.9766 -0.140625 29.6601 -0.0117188 27.8555 1.20703ZM43.207 11.5078C50.4844 16.4062 56.5898 20.543 56.8008 20.6836L57.1758 20.9297L56.1797 22.4297C55.6172 23.2734 55.1133 23.9062 55.043 23.8711C54.9609 23.8477 49.5 20.168 42.8906 15.7031C36.2812 11.25 30.7383 7.52344 30.5625 7.42969C30.0234 7.14844 29.707 7.24219 28.4531 8.0625C27.1406 8.94141 10.2891 20.3086 7.12499 22.4531C6.05858 23.1914 5.09764 23.8242 4.99218 23.8594C4.87499 23.9062 4.54686 23.5078 3.8203 22.4297L2.82421 20.9414L6.77343 18.2695C8.94139 16.8164 15.0469 12.6797 20.332 9.10547C25.6172 5.53125 29.9531 2.58984 29.9648 2.58984C29.9883 2.57812 35.9414 6.59766 43.207 11.5078ZM37.9453 15.1992C42.3164 18.1406 46.8984 21.2344 48.1406 22.0781L50.3906 23.6016V40.6289V57.6562H30H9.60936V40.6289V23.6016L19.7812 16.7344C25.3711 12.9492 29.9648 9.85547 29.9766 9.85547C30 9.84375 33.5859 12.2578 37.9453 15.1992Z" fill="black"/>
<path d="M23.9531 21.668C21.6562 22.2656 20.0625 25.0078 20.4961 27.6211C20.789 29.3555 21.8086 30.8086 23.1797 31.4883C23.7539 31.7695 23.9883 31.8164 24.8437 31.8164C25.6992 31.8164 25.9336 31.7695 26.4961 31.4883C27.3398 31.0781 28.2773 30.0938 28.7109 29.1562C30.2461 25.875 28.289 21.8086 25.1015 21.6211C24.6679 21.5977 24.1523 21.6094 23.9531 21.668ZM25.4648 24.0703C26.5429 24.5273 27.1523 26.1328 26.7773 27.5508C26.2734 29.5547 24.6679 30.1523 23.4726 28.7812C22.9922 28.2539 22.8047 27.6445 22.7929 26.7188C22.7929 25.8984 22.957 25.3594 23.414 24.75C23.9765 23.9766 24.6914 23.7422 25.4648 24.0703Z" fill="black"/>
<path d="M34.2656 21.668C32.543 22.1133 31.125 23.8359 30.8203 25.8633C30.4687 28.1602 31.6172 30.5625 33.5156 31.5C34.0664 31.7695 34.3125 31.8164 35.1562 31.8164C36.0117 31.8164 36.2461 31.7695 36.8203 31.4883C38.7187 30.5625 39.8554 28.1719 39.5039 25.8984C39.2461 24.1992 38.168 22.6055 36.8555 21.9727C36.1992 21.6445 34.9219 21.4922 34.2656 21.668ZM35.9297 24.1289C36.7265 24.6211 37.207 25.5938 37.207 26.7188C37.1953 27.6445 37.0078 28.2539 36.5273 28.7813C35.6719 29.7656 34.6289 29.7773 33.8203 28.8164C33.3281 28.2422 33.1406 27.668 33.1289 26.7773C33.1055 25.1719 34.0195 23.9297 35.2148 23.9063C35.414 23.9063 35.7305 24.0117 35.9297 24.1289Z" fill="black"/>
<path d="M16.289 29.9531C12.9375 31.1719 12.0117 36.1641 14.6601 38.8125C15.5156 39.668 16.3476 40.0195 17.5195 40.0195C18.3515 40.0195 18.5625 39.9727 19.2422 39.6328C20.8828 38.8242 21.914 36.9961 21.914 34.9336C21.914 32.8008 20.8242 30.9141 19.1367 30.1172C18.3984 29.7656 17.0273 29.6836 16.289 29.9531ZM18.4805 32.4492C19.1133 32.9062 19.4883 33.7031 19.5469 34.7109C19.6055 35.5781 19.4531 36.1523 19.0078 36.832C18.6797 37.3359 18 37.7344 17.4961 37.7344C16.5234 37.7227 15.6094 36.5625 15.4922 35.2148C15.3164 32.9531 17.0156 31.3828 18.4805 32.4492Z" fill="black"/>
<path d="M41.25 29.9531C38.4375 30.9727 37.2305 34.6641 38.7305 37.6172C39.1758 38.4961 39.9023 39.2109 40.7578 39.6328C41.4375 39.9727 41.6484 40.0195 42.4805 40.0195C43.2539 40.0195 43.5352 39.9609 44.0859 39.7031C47.1797 38.2617 47.8359 33.5156 45.3047 30.9961C44.9766 30.668 44.4492 30.2812 44.1211 30.1289C43.3477 29.7656 42 29.6836 41.25 29.9531ZM43.5234 32.4961C44.1797 33 44.4727 33.75 44.4727 34.9219C44.4727 35.8008 44.4375 35.9883 44.1328 36.5391C43.7461 37.2305 43.043 37.7344 42.4922 37.7344C41.6953 37.7344 40.8984 36.9844 40.5469 35.9414C40.4648 35.6836 40.4297 35.1445 40.4531 34.7109C40.5117 33.7031 40.8867 32.9062 41.5312 32.4375C41.9414 32.1328 42.0937 32.0977 42.5625 32.1445C42.9141 32.168 43.2539 32.2969 43.5234 32.4961Z" fill="black"/>
<path d="M28.3477 33.1055C26.2852 33.6094 24.5156 35.039 23.5664 36.9726C23.2617 37.6055 23.1445 37.9687 22.9219 39.0469C22.875 39.2578 22.6758 39.457 22.2305 39.7031C20.8594 40.4765 19.4883 42.375 19.043 44.1211C18.832 44.9414 18.8086 46.3711 18.9961 47.25C19.4297 49.3125 20.9883 51.2812 22.9102 52.1953C24 52.7226 24.8086 52.8984 26.0156 52.8984C27.2461 52.8984 28.043 52.7109 29.168 52.1719L30.0352 51.75L30.5742 52.0547C31.957 52.8281 34.0781 53.1211 35.625 52.7461C37.7344 52.2422 39.5625 50.7187 40.4766 48.7383C40.9688 47.6719 41.1328 46.8984 41.1328 45.7265C41.1328 43.3945 39.8555 41.0742 37.875 39.7734C37.5117 39.5273 37.1953 39.3281 37.1719 39.3047C37.1484 39.293 37.0664 38.9414 36.9727 38.5195C36.4336 35.9297 34.2539 33.7265 31.6289 33.1055C30.7148 32.8945 29.2383 32.8945 28.3477 33.1055ZM31.8047 35.6133C32.6602 35.9883 33.4453 36.6094 33.9141 37.3008C34.4063 38.0156 34.8047 39.164 34.8047 39.8555C34.8047 40.6289 35.0625 40.957 36.0117 41.414C37.6172 42.1875 38.6602 43.7226 38.7656 45.4687C39 49.6172 34.3594 52.0664 31.0313 49.5586C30.2109 48.9492 29.7891 48.9492 28.9688 49.5586C27.0352 51.0117 24.4805 50.8945 22.7461 49.2773C21.3516 47.9765 20.8594 46.043 21.457 44.2734C21.9023 42.9375 22.7461 42 24.0703 41.3789C24.9375 40.957 25.1953 40.6172 25.1953 39.8555C25.1953 39.164 25.5938 38.0156 26.0859 37.3008C26.707 36.3984 27.75 35.6836 28.8867 35.3789C29.5313 35.2031 31.1953 35.332 31.8047 35.6133Z" fill="black"/>
</g>
<defs>
<clipPath id="clip0_31_372">
<rect width="60" height="60" fill="white"/>
</clipPath>
</defs>
</svg>