<svg width="60" height="60" viewBox="0 0 60 60" fill="none" xmlns="http://www.w3.org/2000/svg">
<g clip-path="url(#clip0_178_563)">
<path d="M3.59499 0.878161C3.82197 0.877064 3.82197 0.877064 4.05354 0.875945C4.47283 0.87399 4.89206 0.874955 5.31135 0.876408C5.76381 0.877468 6.21627 0.875831 6.66873 0.874542C7.5548 0.872457 8.44086 0.872908 9.32694 0.874267C10.047 0.875325 10.7672 0.875469 11.4873 0.874959C11.641 0.874851 11.641 0.874851 11.7978 0.874741C12.006 0.874591 12.2142 0.874439 12.4223 0.874285C14.3746 0.872948 16.3268 0.874486 18.279 0.877004C19.9543 0.879098 21.6295 0.878735 23.3047 0.876573C25.2499 0.874065 27.1951 0.873077 29.1404 0.874517C29.3478 0.874666 29.5552 0.874813 29.7626 0.874959C29.9157 0.875067 29.9157 0.875067 30.0719 0.875178C30.7911 0.875583 31.5104 0.874899 32.2297 0.873796C33.1062 0.872482 33.9827 0.872837 34.8592 0.875334C35.3064 0.876566 35.7537 0.877048 36.2009 0.875499C36.6856 0.873845 37.1702 0.875819 37.6549 0.878161C37.7965 0.877116 37.938 0.87607 38.0839 0.874993C38.8221 0.881937 39.2878 0.900389 39.8437 1.40643C40.2787 1.92519 40.3697 2.27633 40.3582 2.94727C40.3576 3.02431 40.3569 3.10134 40.3562 3.18072C40.3536 3.42434 40.3477 3.66776 40.3417 3.91132C40.3394 4.07748 40.3372 4.24365 40.3353 4.40982C40.3302 4.81501 40.3221 5.22008 40.3124 5.62519C40.4667 5.6215 40.4667 5.6215 40.624 5.61775C41.008 5.60972 41.3918 5.60387 41.7759 5.59944C41.9416 5.59709 42.1073 5.5939 42.273 5.58982C42.5121 5.58409 42.7512 5.58147 42.9904 5.57941C43.134 5.57695 43.2776 5.5745 43.4255 5.57197C44.0463 5.65403 44.3822 5.91901 44.7826 6.38903C45.0734 6.93499 45.0639 7.36696 45.0563 7.97604C45.0567 8.09436 45.0571 8.21269 45.0575 8.33459C45.0583 8.73083 45.0557 9.12698 45.0532 9.52321C45.053 9.80733 45.0531 10.0915 45.0534 10.3756C45.0535 10.9871 45.0521 11.5987 45.0495 12.2103C45.0457 13.0945 45.0445 13.9787 45.0439 14.8629C45.0429 16.2975 45.0397 17.7322 45.0353 19.1668C45.031 20.5602 45.0277 21.9537 45.0257 23.3471C45.0256 23.433 45.0254 23.519 45.0253 23.6075C45.0247 24.0386 45.0241 24.4696 45.0235 24.9007C45.0187 28.4755 45.0104 32.0504 44.9999 35.6252C44.3812 35.6252 43.7624 35.6252 43.1249 35.6252C43.1249 26.3439 43.1249 17.0627 43.1249 7.50019C31.3687 7.50019 19.6124 7.50019 7.49994 7.50019C7.49994 21.4221 7.49994 35.3439 7.49994 49.6877C17.0906 49.6877 26.6812 49.6877 36.5624 49.6877C36.5624 50.3064 36.5624 50.9252 36.5624 51.5627C32.7824 51.5734 29.0025 51.5817 25.2225 51.5866C24.7762 51.5872 24.33 51.5878 23.8838 51.5884C23.7506 51.5886 23.7506 51.5886 23.6146 51.5888C22.176 51.5908 20.7375 51.5945 19.2989 51.5989C17.8229 51.6032 16.3469 51.6058 14.8709 51.6068C13.96 51.6074 13.0492 51.6095 12.1384 51.6133C11.4401 51.616 10.7418 51.6163 10.0434 51.6157C9.75688 51.6158 9.47032 51.6168 9.18376 51.6186C8.79293 51.6209 8.40222 51.6203 8.01139 51.6191C7.89762 51.6204 7.78385 51.6218 7.66664 51.6232C7.00428 51.6173 6.61591 51.5422 6.09369 51.0939C5.6587 50.5752 5.5677 50.224 5.57916 49.5531C5.57983 49.4761 5.58049 49.399 5.58117 49.3197C5.58378 49.076 5.58966 48.8326 5.59564 48.5891C5.598 48.4229 5.60014 48.2567 5.60205 48.0905C5.60719 47.6854 5.61527 47.2803 5.62494 46.8752C5.47072 46.8789 5.47072 46.8789 5.31338 46.8826C4.92941 46.8906 4.54554 46.8965 4.16153 46.9009C3.9958 46.9033 3.83009 46.9065 3.6644 46.9105C3.42525 46.9163 3.18623 46.9189 2.94702 46.921C2.80342 46.9234 2.65982 46.9259 2.51186 46.9284C1.88149 46.8451 1.54216 46.5801 1.15497 46.0855C0.911971 45.6586 0.878734 45.4247 0.878453 44.9379C0.87723 44.7851 0.876008 44.6323 0.874749 44.4748C0.875762 44.3061 0.87682 44.1373 0.877917 43.9685C0.877377 43.7886 0.876632 43.6087 0.875701 43.4287C0.873743 42.9346 0.874712 42.4406 0.876163 41.9465C0.877223 41.4135 0.875588 40.8805 0.874298 40.3475C0.872212 39.3035 0.872664 38.2596 0.874023 37.2156C0.875081 36.3672 0.875225 35.5188 0.874715 34.6704C0.874643 34.5497 0.874571 34.429 0.874497 34.3047C0.874347 34.0595 0.874195 33.8144 0.874041 33.5692C0.872704 31.2696 0.874242 28.9699 0.87676 26.6703C0.878854 24.6966 0.878491 22.7229 0.876329 20.7492C0.873821 18.4579 0.872833 16.1666 0.874273 13.8753C0.874422 13.631 0.874569 13.3867 0.874715 13.1425C0.874823 12.9622 0.874823 12.9622 0.874934 12.7782C0.875339 11.9308 0.874655 11.0833 0.873552 10.2358C0.872238 9.20317 0.872592 8.17056 0.87509 7.13793C0.876323 6.61094 0.876803 6.08398 0.875255 5.557C0.873859 5.0747 0.874623 4.59246 0.877119 4.11017C0.877643 3.93558 0.877375 3.76099 0.87624 3.58641C0.874816 3.34925 0.876556 3.11208 0.878453 2.87493C0.878529 2.74315 0.878605 2.61137 0.878683 2.4756C0.97205 1.89395 1.27559 1.53096 1.6942 1.13183C2.32146 0.838468 2.91057 0.873106 3.59499 0.878161ZM2.81244 2.81268C2.81244 16.7346 2.81244 30.6564 2.81244 45.0002C3.74057 45.0002 4.66869 45.0002 5.62494 45.0002C5.6252 44.7058 5.6252 44.7058 5.62546 44.4055C5.62964 39.7489 5.63623 35.0922 5.64579 30.4355C5.64697 29.8626 5.64812 29.2896 5.64926 28.7167C5.64949 28.6026 5.64971 28.4885 5.64995 28.371C5.65359 26.5232 5.65557 24.6754 5.65696 22.8276C5.65841 20.9321 5.66163 19.0366 5.6665 17.1411C5.66945 15.9712 5.67101 14.8012 5.67081 13.6312C5.67081 12.8293 5.67252 12.0274 5.67558 11.2255C5.6773 10.7626 5.67826 10.2998 5.67718 9.83686C5.67621 9.41308 5.6774 8.98936 5.68029 8.56559C5.68128 8.33964 5.67996 8.11367 5.67855 7.88771C5.69106 6.634 5.69106 6.634 6.21088 6.09394C6.74834 5.61398 7.38654 5.69246 8.06848 5.69565C8.19818 5.69487 8.32789 5.69409 8.46153 5.69329C8.89698 5.6911 9.33239 5.69141 9.76785 5.6917C10.0797 5.69065 10.3915 5.68945 10.7033 5.68808C11.375 5.68541 12.0467 5.68402 12.7185 5.6835C13.6897 5.68274 14.6609 5.68005 15.6321 5.6769C17.2079 5.67182 18.7836 5.66831 20.3594 5.66578C21.89 5.66332 23.4206 5.66013 24.9513 5.65594C25.0928 5.65555 25.0928 5.65555 25.2372 5.65516C25.7106 5.65386 26.1839 5.65255 26.6573 5.65123C30.584 5.64031 34.5107 5.63202 38.4374 5.62519C38.4374 4.69706 38.4374 3.76893 38.4374 2.81268C26.6812 2.81268 14.9249 2.81268 2.81244 2.81268Z" fill="#364E14"/>
<path d="M56.8767 26.417C57.1094 26.5854 57.3248 26.7619 57.5391 26.9531C57.6406 27.0401 57.7421 27.1271 57.8467 27.2167C58.6968 28.2011 59.1044 29.1918 59.1138 30.4833C59.1176 30.5746 59.1215 30.6658 59.1254 30.7598C59.1378 32.1379 58.3519 33.3181 57.6709 34.4677C57.5538 34.668 57.4366 34.8684 57.3196 35.0687C57.1991 35.2748 57.0783 35.4806 56.9574 35.6864C56.581 36.3277 56.2108 36.9726 55.8398 37.6171C55.6934 37.871 55.5469 38.1249 55.4004 38.3788C55.2916 38.5674 55.2916 38.5674 55.1807 38.7597C53.7891 41.1718 52.3975 43.5839 51.0059 45.996C50.9333 46.1218 50.8607 46.2476 50.786 46.3771C50.64 46.6302 50.494 46.8832 50.348 47.1363C49.8977 47.9166 49.4479 48.6971 48.9984 49.4778C48.8489 49.7371 48.6991 49.9961 48.549 50.255C48.227 50.8101 47.9073 51.3656 47.6001 51.9291C47.0491 52.9296 46.5524 53.6147 45.5859 54.2577C45.4292 54.3704 45.273 54.4839 45.1172 54.5979C44.6649 54.9285 44.2103 55.2557 43.7548 55.5818C43.3123 55.8989 42.8707 56.2171 42.4292 56.5356C42.3439 56.597 42.2587 56.6585 42.1708 56.7219C41.3913 57.2849 40.6175 57.8556 39.8456 58.4291C39.7568 58.4949 39.6679 58.5607 39.5764 58.6285C39.4585 58.7161 39.4585 58.7161 39.3382 58.8055C38.9652 59.0693 38.6656 59.0873 38.2114 59.1123C37.8529 59.0386 37.7264 58.8768 37.5 58.5937C37.4482 58.253 37.4482 58.253 37.46 57.8578C37.4643 57.7115 37.4686 57.5652 37.473 57.4145C37.5176 56.6517 37.5882 55.8933 37.6712 55.1339C37.6891 54.9651 37.7069 54.7963 37.7247 54.6275C37.7618 54.277 37.7995 53.9266 37.8376 53.5763C37.8862 53.1296 37.9334 52.6828 37.9802 52.236C38.0167 51.8887 38.0539 51.5414 38.0912 51.1942C38.1089 51.0295 38.1263 50.8648 38.1436 50.7C38.3733 48.5197 38.3733 48.5197 38.9003 47.6302C38.9698 47.5115 39.0393 47.3928 39.1109 47.2704C39.186 47.1448 39.261 47.0191 39.3384 46.8896C39.4579 46.6861 39.5774 46.4826 39.6968 46.2791C39.8202 46.0689 39.9442 45.859 40.0682 45.6492C40.4477 45.006 40.8191 44.3582 41.1914 43.7109C41.3379 43.4569 41.4843 43.203 41.6309 42.9492C41.7034 42.8235 41.7759 42.6978 41.8506 42.5683C43.2422 40.1562 44.6338 37.7441 46.0254 35.332C46.1342 35.1434 46.1342 35.1434 46.2452 34.9509C46.3914 34.6976 46.5376 34.4443 46.6838 34.1909C47.055 33.5478 47.4257 32.9043 47.7956 32.2604C48.4833 31.0637 49.1731 29.8683 49.8779 28.6816C49.9333 28.5874 49.9887 28.4932 50.0458 28.3962C50.7999 27.1355 51.768 26.2046 53.2356 25.8325C54.514 25.627 55.7546 25.7356 56.8767 26.417ZM52.0528 28.9709C51.8592 29.2622 51.703 29.5628 51.5625 29.8827C52.3154 30.4243 53.1148 30.8718 53.9271 31.3161C54.5852 31.6764 55.2281 32.0544 55.865 32.4513C56.1418 32.6201 56.1418 32.6201 56.4844 32.4609C57.1033 31.645 57.2051 30.7585 57.0703 29.7656C56.8208 28.8658 56.1796 28.3504 55.3931 27.9052C54.0834 27.5056 52.897 27.8803 52.0528 28.9709ZM50.5078 31.6406C50.4596 31.7252 50.4114 31.8099 50.3617 31.8971C49.4498 33.498 48.5342 35.0965 47.6039 36.6868C46.8826 37.9203 46.1692 39.1584 45.456 40.3965C45.0894 41.0327 44.7224 41.6687 44.3555 42.3046C44.2101 42.5567 44.0646 42.8088 43.9192 43.0608C43.6549 43.5191 43.3905 43.9773 43.1259 44.4354C41.9494 46.4731 41.9494 46.4731 40.7813 48.5156C41.2515 48.927 41.7433 49.1912 42.3047 49.4531C43.3698 47.6317 44.4283 45.8066 45.4815 43.9783C45.8481 43.3421 46.2151 42.7062 46.582 42.0702C46.7285 41.8163 46.875 41.5624 47.0215 41.3085C47.4609 40.5468 47.4609 40.5468 47.9004 39.7851C47.973 39.6593 48.0455 39.5335 48.1203 39.4039C48.2662 39.151 48.4121 38.8982 48.558 38.6453C48.9335 37.9948 49.3085 37.344 49.6829 36.6929C49.7592 36.5603 49.8355 36.4278 49.9141 36.2912C50.0638 36.0312 50.2133 35.7711 50.3627 35.5109C50.6774 34.9645 50.9939 34.4201 51.3254 33.8836C51.3762 33.8012 51.4269 33.7188 51.4792 33.634C51.5704 33.4873 51.6626 33.3412 51.7561 33.196C51.8878 32.9907 51.8878 32.9907 52.0313 32.6952C51.9477 32.3165 51.9477 32.3165 51.595 32.1555C51.4658 32.0944 51.3367 32.0332 51.2036 31.9701C51.0742 31.9081 50.9447 31.846 50.8113 31.782C50.7112 31.7353 50.611 31.6887 50.5078 31.6406ZM53.7891 33.5156C52.8773 35.056 51.9818 36.6056 51.0885 38.1568C50.7195 38.7974 50.35 39.4377 49.9805 40.0781C49.834 40.332 49.6875 40.5859 49.541 40.8398C49.248 41.3476 48.9551 41.8554 48.6621 42.3632C48.5896 42.4889 48.5171 42.6147 48.4423 42.7442C48.2961 42.9977 48.1498 43.2512 48.0034 43.5048C47.6339 44.1451 47.2647 44.7857 46.8961 45.4266C46.7475 45.6848 46.5988 45.9429 46.4502 46.2011C46.3784 46.326 46.3065 46.4508 46.2325 46.5794C45.8713 47.2059 45.507 47.8302 45.1369 48.4515C45.0657 48.5709 44.9946 48.6904 44.9213 48.8134C44.7863 49.0396 44.6508 49.2656 44.5147 49.4912C44.4551 49.591 44.3954 49.6908 44.334 49.7936C44.255 49.9247 44.255 49.9247 44.1745 50.0585C44.0445 50.2676 44.0445 50.2676 44.0625 50.5077C44.2913 50.6582 44.527 50.7983 44.7656 50.9326C44.8961 51.0066 45.0267 51.0806 45.1611 51.1569C45.2626 51.2134 45.3642 51.2698 45.4688 51.3281C45.7919 50.9407 46.0581 50.5559 46.301 50.1141C46.3674 49.9941 46.4339 49.8741 46.5024 49.7504C46.5722 49.6233 46.642 49.4961 46.7139 49.3652C47.1864 48.5128 47.659 47.6616 48.1567 46.8237C48.6414 46.0069 49.1181 45.1857 49.5923 44.3627C49.6671 44.233 49.7418 44.1032 49.8189 43.9695C49.9721 43.7034 50.1254 43.4373 50.2786 43.1712C50.6477 42.5306 51.0172 41.8903 51.3867 41.2499C51.8317 40.4786 52.2767 39.7073 52.7216 38.9359C53.5838 37.4409 54.4471 35.9463 55.3125 34.4531C54.8423 34.0416 54.3504 33.7774 53.7891 33.5156ZM40.1953 50.6249C40.1566 51.2437 40.118 51.8624 40.0781 52.4999C41.2811 53.2524 41.2811 53.2524 42.5391 53.9062C43.0418 53.5581 43.5445 53.2101 44.0625 52.8515C43.6312 52.5064 43.2649 52.2467 42.7908 51.9822C42.6621 51.9102 42.5334 51.8382 42.4008 51.7641C42.2676 51.6903 42.1343 51.6165 41.9971 51.5405C41.8629 51.4653 41.7288 51.3902 41.5906 51.3127C40.9131 50.9241 40.9131 50.9241 40.1953 50.6249ZM39.8438 54.7265C39.6993 54.8447 39.6993 54.8447 39.7151 55.0858C39.7165 55.1824 39.7178 55.2789 39.7192 55.3784C39.7203 55.4752 39.7214 55.572 39.7224 55.6718C39.7238 55.7466 39.7252 55.8213 39.7266 55.8984C39.8834 55.8066 40.0395 55.7136 40.1953 55.6201C40.2823 55.5684 40.3693 55.5167 40.459 55.4635C40.5267 55.4136 40.5943 55.3638 40.6641 55.3124C40.6641 55.2351 40.6641 55.1577 40.6641 55.0781C40.3934 54.962 40.1227 54.846 39.8438 54.7265Z" fill="#364E14"/>
<path d="M32.0932 29.8716C32.5332 29.8763 32.9726 29.8719 33.4126 29.8652C35.7403 29.8349 38.0498 29.9864 40.0791 31.2797C40.5725 31.7957 40.7148 32.3545 40.8265 33.0448C40.8453 33.1597 40.8453 33.1597 40.8644 33.2769C40.8905 33.4382 40.9159 33.5996 40.9409 33.7611C40.9786 34.0041 41.0185 34.2467 41.0588 34.4893C41.4438 36.8661 41.4438 36.8661 41.0179 37.487C40.5884 37.7875 40.1514 38.0507 39.6899 38.2986C39.6031 38.3462 39.5163 38.3939 39.4269 38.443C39.2148 38.5593 39.0019 38.6744 38.789 38.7893C38.5484 40.7039 39.03 41.8228 40.1593 43.3654C40.3124 43.594 40.3124 43.594 40.4296 43.9455C40.1868 44.1091 39.9428 44.2696 39.6972 44.4289C39.6285 44.4756 39.5597 44.5223 39.4889 44.5704C39.2852 44.7009 39.2852 44.7009 38.9062 44.883C38.4755 44.7491 38.3175 44.5139 38.0964 44.1337C38.0059 43.9802 38.0059 43.9802 37.9135 43.8236C37.852 43.7164 37.7904 43.6092 37.727 43.4988C37.634 43.34 37.634 43.34 37.5391 43.1781C37.4231 42.98 37.3076 42.7816 37.1927 42.5829C37.0343 42.3007 37.0343 42.3007 36.8388 42.0336C36.6327 41.6262 36.6227 41.2576 36.6206 40.8108C36.6194 40.7246 36.6182 40.6383 36.617 40.5495C36.6153 40.3679 36.6144 40.1863 36.6145 40.0047C36.6137 39.7275 36.6073 39.4509 36.6007 39.1738C36.5996 38.9968 36.5989 38.8198 36.5986 38.6428C36.5961 38.5605 36.5935 38.4782 36.5909 38.3934C36.5977 37.9092 36.6625 37.752 37.0079 37.4029C37.6214 36.9869 37.6214 36.9869 37.8359 36.8607C37.913 36.815 37.99 36.7693 38.0694 36.7223C38.1473 36.6769 38.2253 36.6315 38.3056 36.5847C38.3863 36.537 38.4669 36.4894 38.55 36.4403C38.7466 36.3243 38.9435 36.2091 39.1406 36.094C39.1264 36.0071 39.1122 35.9202 39.0975 35.8306C39.0335 35.4375 38.9698 35.0443 38.9062 34.6511C38.8727 34.4459 38.8727 34.4459 38.8384 34.2366C38.8173 34.1056 38.7961 33.9745 38.7744 33.8395C38.7547 33.7186 38.7351 33.5977 38.7148 33.4731C38.6718 33.1643 38.6718 33.1643 38.6718 32.8127C38.4652 32.7729 38.4652 32.7729 38.2543 32.7322C37.9115 32.6597 37.606 32.5737 37.2821 32.4383C35.9195 31.8827 34.5639 31.8953 33.1082 31.9032C32.6838 31.9045 32.2599 31.8984 31.8356 31.8917C30.1468 31.8825 28.7292 32.0825 27.167 32.7388C26.9531 32.8127 26.9531 32.8127 26.6015 32.8127C26.5873 32.9318 26.5731 33.0508 26.5585 33.1735C26.44 34.1517 26.3033 35.1232 26.1328 36.094C26.2258 36.1498 26.2258 36.1498 26.3208 36.2067C26.6027 36.3761 26.8841 36.5463 27.1655 36.7165C27.2631 36.7751 27.3608 36.8336 27.4614 36.8939C27.5554 36.951 27.6495 37.008 27.7464 37.0667C27.8329 37.1189 27.9194 37.1711 28.0086 37.2248C28.4298 37.5102 28.4298 37.5102 28.5937 37.7346C28.7085 38.345 28.7145 38.9676 28.7255 39.5876C28.7274 39.679 28.7294 39.7704 28.7313 39.8646C28.7485 41.5429 28.2988 42.6953 27.4733 44.1289C26.7686 45.3653 26.5959 46.4044 26.7187 47.8127C26.0613 47.8127 25.4038 47.8127 24.7265 47.8127C24.4678 45.7147 24.7904 44.4028 25.7901 42.5988C26.4936 41.3259 26.8861 40.2655 26.7187 38.7893C26.6418 38.7614 26.5649 38.7334 26.4857 38.7046C26.03 38.5113 25.6048 38.2766 25.1733 38.0349C25.046 37.9655 25.046 37.9655 24.9162 37.8946C24.7944 37.8265 24.7944 37.8265 24.6702 37.757C24.5966 37.7162 24.523 37.6753 24.4472 37.6332C24.2578 37.5002 24.2578 37.5002 24.0234 37.1487C23.894 36.2382 24.1015 35.2862 24.248 34.3878C24.2871 34.1456 24.3235 33.9031 24.3598 33.6605C24.6606 31.7313 24.6606 31.7313 25.3709 31.1787C27.4013 29.9009 29.7783 29.8464 32.0932 29.8716Z" fill="#364E14"/>
<path d="M12.0704 31.5234C12.29 31.6711 12.4663 31.8423 12.6586 32.024C14.0246 33.2551 15.8086 33.1481 17.5419 33.0892C18.8314 33.0197 19.7537 32.7345 20.7097 31.8311C20.9989 31.5637 21.1882 31.4706 21.5841 31.4502C22.0313 31.5234 22.0313 31.5234 22.2905 31.6862C22.6205 32.1681 22.5601 32.6413 22.55 33.2117C22.5494 33.3935 22.5494 33.3935 22.5488 33.579C22.5469 33.9681 22.5418 34.3571 22.5367 34.7461C22.5353 35.0008 22.5342 35.2554 22.5332 35.5101C22.5299 36.1334 22.5207 36.7564 22.5074 37.3795C22.5026 37.6114 22.4986 37.8433 22.4954 38.0752C22.4623 40.2655 22.4623 40.2655 21.8409 41.2354C21.4536 41.8471 21.4536 41.8471 21.3213 42.5409C21.4537 42.9142 21.6273 43.2218 21.8308 43.5599C22.6489 44.9501 22.608 46.2378 22.5001 47.8125C21.8813 47.8125 21.2626 47.8125 20.6251 47.8125C20.6347 47.5418 20.6444 47.2711 20.6544 46.9922C20.6328 45.6198 19.9024 44.4783 19.2422 43.3142C19.0831 42.9673 19.0094 42.6857 18.9844 42.3047C19.0857 42.0593 19.0857 42.0593 19.2467 41.8277C20.654 39.5496 20.5015 37.0514 20.5079 34.4531C20.4167 34.5153 20.4167 34.5153 20.3238 34.5787C19.5803 35.0435 18.9929 35.1242 18.127 35.1128C17.9414 35.1132 17.9414 35.1132 17.7521 35.1136C17.492 35.1135 17.2319 35.1119 16.9718 35.109C16.5754 35.105 16.1794 35.1066 15.7831 35.1089C15.5292 35.1081 15.2754 35.1069 15.0216 35.1054C14.9041 35.106 14.7867 35.1066 14.6656 35.1072C13.9265 35.0949 13.2099 35.0068 12.6563 34.4531C12.6601 34.5943 12.6639 34.7355 12.6679 34.881C12.727 37.4955 12.6957 39.8545 11.7367 42.3099C11.0193 44.1558 10.946 45.8447 11.0157 47.8125C10.3583 47.8125 9.70084 47.8125 9.02349 47.8125C8.88013 45.6409 8.88556 43.8209 9.71929 41.792C10.6528 39.5089 10.571 37.1571 10.5458 34.7331C10.5444 34.5806 10.5431 34.4282 10.5417 34.2711C10.5382 33.9825 10.5328 33.694 10.5251 33.4056C10.5049 32.1926 10.5049 32.1926 10.8985 31.6406C11.2809 31.4494 11.6585 31.4441 12.0704 31.5234Z" fill="#364E14"/>
<path d="M34.3341 9.72969C34.5756 9.8462 34.7729 9.92626 35.0391 9.96086C35.2462 9.84989 35.4536 9.73828 35.6507 9.61021C36.4409 9.1631 37.6901 9.27098 38.5579 9.44679C39.3803 9.73443 39.8896 10.257 40.3235 11.0009C40.7165 11.8742 40.6589 12.8816 40.3711 13.7768C39.5767 15.7022 37.8461 17.1296 36.163 18.2712C36.0045 18.3793 35.8506 18.4942 35.6978 18.6103C35.2358 18.8203 34.8341 18.8417 34.336 18.7499C33.9749 18.5868 33.675 18.3683 33.3619 18.1274C33.2761 18.064 33.1903 18.0005 33.1019 17.9352C32.3324 17.3569 31.6192 16.7342 30.9375 16.0546C30.8585 15.9783 30.7795 15.902 30.6981 15.8234C29.7215 14.808 29.1318 13.4596 29.1468 12.0565C29.2281 11.223 29.6522 10.5431 30.2344 9.96086C31.4017 9.14057 33.0663 9.11127 34.3341 9.72969ZM36.211 11.6015C35.9906 11.8218 35.8154 12.056 35.625 12.3046C35.3219 12.537 35.1624 12.5387 34.7754 12.5536C34.2239 12.3882 33.9785 12.1158 33.5976 11.6967C33.3535 11.4364 33.2349 11.3741 32.8798 11.3392C32.16 11.3135 32.16 11.3135 31.5088 11.5868C31.2348 11.896 31.2348 11.896 31.1614 12.2868C31.2624 13.7551 32.4732 14.7773 33.5157 15.703C33.9283 16.0396 34.361 16.3462 34.8047 16.6405C36.2962 15.7917 37.9996 14.5401 38.5286 12.8306C38.6068 12.38 38.5893 12.1409 38.3863 11.726C37.6929 11.1679 36.9693 11.1302 36.211 11.6015Z" fill="#364E14"/>
<path d="M10.3125 22.5C16.8094 22.5 23.3063 22.5 30 22.5C30 23.1188 30 23.7375 30 24.375C23.5031 24.375 17.0062 24.375 10.3125 24.375C10.3125 23.7563 10.3125 23.1375 10.3125 22.5Z" fill="#364E14"/>
<path d="M10.3125 17.8125C15.8812 17.8125 21.45 17.8125 27.1875 17.8125C27.1875 18.4313 27.1875 19.05 27.1875 19.6875C21.6187 19.6875 16.05 19.6875 10.3125 19.6875C10.3125 19.0688 10.3125 18.45 10.3125 17.8125Z" fill="#364E14"/>
<path d="M10.3125 13.125C14.6437 13.125 18.975 13.125 23.4375 13.125C23.4375 13.7438 23.4375 14.3625 23.4375 15C19.1062 15 14.775 15 10.3125 15C10.3125 14.3813 10.3125 13.7625 10.3125 13.125Z" fill="#364E14"/>
<path d="M32.8153 37.7991C33.2284 37.893 33.4022 38.0954 33.6329 38.4376C33.6329 38.8165 33.5991 39.0335 33.3651 39.3344C33.0443 39.5865 32.7574 39.5479 32.363 39.5331C32.1094 39.4923 32.1094 39.4923 31.8091 39.3019C31.5892 38.9386 31.571 38.7385 31.6407 38.3205C31.939 37.8481 32.2621 37.769 32.8153 37.7991Z" fill="#364E14"/>
<path d="M19.1015 36.5625C19.3359 36.7969 19.3359 36.7969 19.367 37.0166C19.3664 37.0988 19.3658 37.1809 19.3652 37.2656C19.3658 37.3478 19.3664 37.43 19.367 37.5146C19.3359 37.7344 19.3359 37.7344 19.1015 37.9687C18.2799 38.0339 18.2799 38.0339 17.9296 37.8369C17.7563 37.5119 17.7672 37.2759 17.8125 36.9141C18.0829 36.4069 18.5986 36.5226 19.1015 36.5625Z" fill="#364E14"/>
<path d="M14.5165 36.5312C14.5987 36.5319 14.6808 36.5325 14.7655 36.5331C14.8477 36.5325 14.9299 36.5319 15.0145 36.5312C15.2343 36.5624 15.2343 36.5624 15.4686 36.7968C15.4998 37.0165 15.4998 37.0165 15.4979 37.2655C15.4985 37.3477 15.4991 37.4299 15.4998 37.5145C15.4686 37.7343 15.4686 37.7343 15.2343 37.9686C15.0145 37.9998 15.0145 37.9998 14.7655 37.9979C14.6833 37.9985 14.6011 37.9991 14.5165 37.9998C14.2968 37.9686 14.2968 37.9686 14.0624 37.7343C14.0312 37.5145 14.0312 37.5145 14.0331 37.2655C14.0325 37.1833 14.0319 37.1011 14.0312 37.0165C14.0763 36.6983 14.1983 36.5763 14.5165 36.5312Z" fill="#364E14"/>
<path d="M34.6727 34.6562C34.7549 34.6569 34.8371 34.6575 34.9218 34.6581C35.0039 34.6575 35.0861 34.6569 35.1708 34.6562C35.3905 34.6874 35.3905 34.6874 35.6249 34.9218C35.656 35.1415 35.656 35.1415 35.6542 35.3905C35.6548 35.4727 35.6554 35.5549 35.656 35.6395C35.6249 35.8593 35.6249 35.8593 35.3905 36.0936C35.1708 36.1248 35.1708 36.1248 34.9218 36.1229C34.8396 36.1235 34.7574 36.1241 34.6727 36.1248C34.453 36.0936 34.453 36.0936 34.2186 35.8593C34.1875 35.6395 34.1875 35.6395 34.1893 35.3905C34.1887 35.3083 34.1881 35.2261 34.1875 35.1415C34.2326 34.8233 34.3546 34.7013 34.6727 34.6562Z" fill="#364E14"/>
<path d="M30.2856 34.6509C30.7031 34.6875 30.7031 34.6875 30.9302 34.8193C31.1138 35.1433 31.1004 35.3768 31.0547 35.7422C30.9302 35.9619 30.9302 35.9619 30.7031 36.0938C30.293 36.145 30.293 36.145 29.8828 36.0938C29.6484 35.9033 29.6484 35.9033 29.5312 35.625C29.568 35.0121 29.6281 34.7107 30.2856 34.6509Z" fill="#364E14"/>
</g>
<defs>
<clipPath id="clip0_178_563">
<rect width="60" height="60" fill="white"/>
</clipPath>
</defs>
</svg>
