<svg width="60" height="60" viewBox="0 0 60 60" fill="none" xmlns="http://www.w3.org/2000/svg">
<g clip-path="url(#clip0_31_396)">
<path d="M23.0567 9.81581C23.1513 9.81466 23.246 9.81351 23.3435 9.81233C26.396 9.78295 29.194 10.0581 32.1094 11.0156C32.1919 11.0425 32.2744 11.0693 32.3594 11.097C36.5721 12.4978 40.3832 15.2797 43.125 18.75C43.2644 18.9195 43.2644 18.9195 43.4066 19.0924C46.7131 23.2085 48.3409 28.4723 48.3179 33.706C48.3177 33.8095 48.3174 33.913 48.3172 34.0196C48.2985 38.7723 46.9335 43.4327 44.1797 47.3437C44.1288 47.4167 44.0778 47.4897 44.0252 47.5649C40.1861 53.0095 34.4888 56.3178 27.987 57.4868C27.2226 57.6075 26.4819 57.6764 25.709 57.6842C25.6145 57.6853 25.52 57.6865 25.4227 57.6876C20.8211 57.7322 14.979 57.1434 11.354 53.9204C11.1353 53.7564 11.1353 53.7564 10.8642 53.8481C10.4536 54.075 10.073 54.3317 9.68999 54.602C9.522 54.7191 9.354 54.8361 9.18599 54.9531C9.05783 55.0428 9.05783 55.0428 8.92707 55.1344C8.53106 55.4108 8.1327 55.6838 7.73443 55.957C7.57816 56.0644 7.42191 56.1718 7.26568 56.2793C6.95318 56.4941 6.64068 56.709 6.32818 56.9238C6.212 57.0037 6.212 57.0037 6.09349 57.0852C5.9383 57.1919 5.7831 57.2985 5.62788 57.4052C5.22083 57.6848 4.81412 57.965 4.40786 58.2458C4.2813 58.3332 4.2813 58.3332 4.1522 58.4223C3.99127 58.5334 3.83043 58.6446 3.66971 58.756C3.463 58.8986 3.25532 59.0396 3.04692 59.1797C2.9445 59.2486 2.84208 59.3174 2.73656 59.3884C2.26486 59.6329 1.80568 59.622 1.28911 59.5312C0.92362 59.3331 0.657449 59.0882 0.4688 58.7109C0.34264 57.7177 0.64049 56.8366 0.944416 55.9035C0.994586 55.7452 1.0446 55.5868 1.09448 55.4285C1.22611 55.0118 1.35972 54.5958 1.4938 54.18C1.6259 53.7692 1.75627 53.3578 1.88672 52.9465C2.09265 52.2981 2.29879 51.6497 2.50533 51.0014C2.53059 50.9221 2.55585 50.8428 2.58187 50.7611C2.73709 50.2742 2.89368 49.7877 3.05108 49.3014C3.15254 48.987 3.25288 48.6723 3.35295 48.3574C3.42284 48.1388 3.49415 47.9207 3.5655 47.7026C3.60707 47.5712 3.64865 47.4399 3.69148 47.3045C3.72841 47.19 3.76533 47.0754 3.80337 46.9574C3.94072 46.2762 3.63291 45.8271 3.28862 45.2637C2.08154 43.1914 1.31857 40.892 0.820362 38.5547C0.799686 38.462 0.779009 38.3694 0.757706 38.2739C-0.481501 32.4807 0.862731 25.9084 4.02837 20.9472C4.2046 20.6804 4.38624 20.4177 4.57036 20.1562C4.64684 20.0467 4.64684 20.0467 4.72486 19.935C8.5436 14.5193 14.1922 11.2409 20.6433 10.0131C21.4476 9.88713 22.243 9.82404 23.0567 9.81581ZM9.19423 19.1632C6.58467 21.7879 4.73373 25.237 3.86724 28.8281C3.84426 28.9196 3.82128 29.0112 3.7976 29.1055C3.42254 30.6588 3.35245 32.1964 3.34722 33.7866C3.34649 33.8795 3.34577 33.9724 3.34503 34.0681C3.33631 35.8076 3.55309 37.5028 4.0064 39.1846C4.03068 39.275 4.05496 39.3655 4.07998 39.4587C4.59552 41.2964 5.34782 43.3191 6.49005 44.8679C6.96931 45.5321 7.00153 46.0699 6.91411 46.875C6.77682 47.4642 6.58938 48.0345 6.3973 48.6076C6.34428 48.7707 6.29146 48.9338 6.23881 49.097C6.10107 49.5226 5.96125 49.9475 5.82081 50.3722C5.59517 51.0554 5.37227 51.7395 5.1503 52.4239C5.07251 52.6625 4.99354 52.9006 4.91443 53.1387C4.8675 53.2823 4.82056 53.4259 4.77221 53.5739C4.73031 53.7007 4.68841 53.8274 4.64525 53.958C4.53675 54.2541 4.53675 54.2541 4.68755 54.4922C4.75069 54.4449 4.81384 54.3976 4.8789 54.3489C6.40996 53.2186 7.99822 52.1657 9.58013 51.1084C9.652 51.0603 9.72386 51.0122 9.79791 50.9626C10.371 50.5813 10.6629 50.4407 11.3672 50.5078C11.8717 50.713 12.3173 51.0234 12.7675 51.3263C17.4496 54.4514 23.1302 55.4705 28.6327 54.4006C34.2082 53.241 38.9946 49.8238 42.1133 45.0943C43.614 42.7585 44.5958 40.2257 45.1172 37.5C45.139 37.389 45.1607 37.278 45.1831 37.1637C45.3793 36.0501 45.3983 34.9504 45.3956 33.8232C45.3955 33.7252 45.3954 33.6271 45.3954 33.5261C45.3906 31.9204 45.2803 30.39 44.8829 28.8281C44.8584 28.729 44.8339 28.6299 44.8086 28.5278C43.4 22.9827 39.6826 18.3539 34.8072 15.4477C32.7175 14.237 30.4863 13.4822 28.1251 13.0078C27.9895 12.9803 27.854 12.9528 27.7144 12.9245C20.8427 11.7134 14.0556 14.3541 9.19423 19.1632Z" fill="black"/>
<path d="M43.3594 1.6406C43.4419 1.66745 43.5244 1.6943 43.6094 1.72197C47.8221 3.12284 51.6332 5.90474 54.3751 9.37498C54.5144 9.54447 54.5144 9.54447 54.6566 9.71738C57.9631 13.8335 59.5909 19.0972 59.5679 24.331C59.5677 24.4346 59.5674 24.5381 59.5672 24.6447C59.5612 26.1803 59.5177 27.6758 59.1797 29.1797C59.1448 29.3394 59.1448 29.3394 59.1092 29.5024C58.6011 31.7646 57.842 34.3789 56.4618 36.2871C56.2611 36.5752 56.1259 36.7929 56.1465 37.1518C56.3426 38.0557 56.6191 38.9306 56.9037 39.8099C56.957 39.9759 57.0101 40.1421 57.0632 40.3082C57.2026 40.744 57.3428 41.1796 57.4832 41.6151C57.6234 42.0507 57.7633 42.4864 57.903 42.9222C57.9303 43.0071 57.9575 43.092 57.9856 43.1794C58.1972 43.8395 58.408 44.4998 58.618 45.1604C58.7284 45.5076 58.8393 45.8547 58.9516 46.2014C59.0554 46.5222 59.1573 46.8436 59.2585 47.1652C59.2872 47.252 59.3159 47.3389 59.3455 47.4284C59.5386 48.0535 59.6229 48.6835 59.5313 49.3359C59.3333 49.7013 59.088 49.9677 58.711 50.1562C57.8632 50.3022 57.3323 50.1032 56.6414 49.6206C56.5807 49.5763 56.52 49.532 56.4574 49.4864C56.2196 49.3138 55.979 49.1458 55.7378 48.9779C55.3403 48.7011 54.9437 48.4229 54.5476 48.1439C53.894 47.685 53.2341 47.2356 52.5733 46.7871C52.2551 46.5702 51.9371 46.3532 51.6191 46.136C51.4339 46.0096 51.2485 45.8835 51.0629 45.7577C50.833 45.6016 50.6044 45.4439 50.376 45.2856C50.2525 45.2009 50.1289 45.1161 50.0016 45.0288C49.5294 44.6331 49.248 44.2666 49.1602 43.6523C49.2466 43.0477 49.4877 42.7011 49.9586 42.3193C50.3818 42.1421 50.6362 42.1265 51.0938 42.1875C51.9009 42.5522 52.6187 43.087 53.335 43.6011C53.5353 43.7444 53.7358 43.8874 53.9365 44.03C54.0673 44.1238 54.0673 44.1238 54.2007 44.2195C54.5617 44.4604 54.934 44.6707 55.3126 44.8828C55.2685 44.7483 55.2685 44.7483 55.2236 44.6112C54.9458 43.762 54.6698 42.9122 54.3958 42.0618C54.2549 41.6247 54.1133 41.1878 53.9702 40.7515C53.8317 40.3296 53.6952 39.907 53.5599 39.4841C53.5082 39.3237 53.4559 39.1635 53.4029 39.0035C52.6992 36.8766 52.6992 36.8766 53.0881 35.9162C53.2315 35.6414 53.3918 35.3859 53.5621 35.1269C53.6818 34.9322 53.8009 34.7372 53.9196 34.5419C53.9778 34.4471 54.0361 34.3522 54.0961 34.2545C55.3338 32.1872 55.9873 29.7834 56.3672 27.4219C56.3878 27.2958 56.4083 27.1698 56.4294 27.04C56.488 26.5727 56.5074 26.1122 56.5124 25.6421C56.5135 25.5517 56.5146 25.4613 56.5158 25.3681C56.5361 23.355 56.5153 21.4166 56.0157 19.4531C55.9912 19.354 55.9667 19.2549 55.9415 19.1528C54.5442 13.6527 50.8939 9.07301 46.0572 6.18986C43.9675 4.97919 41.7363 4.22438 39.3751 3.74998C39.1718 3.70874 39.1718 3.70874 38.9644 3.66666C33.9736 2.78705 28.2707 3.91042 24.0967 6.83164C23.6518 7.12031 23.2602 7.18893 22.7344 7.14841C22.2828 6.92259 21.9033 6.67048 21.6797 6.21091C21.5957 5.66811 21.6062 5.2944 21.8679 4.80283C22.181 4.41254 22.5098 4.1814 22.9395 3.9404C23.0555 3.87346 23.0555 3.87346 23.1738 3.80516C23.4166 3.66683 23.6609 3.53194 23.9063 3.39841C23.9814 3.35757 24.0564 3.31673 24.1338 3.27464C26.2562 2.13673 28.4686 1.33442 30.8204 0.820288C30.9139 0.799271 31.0074 0.778255 31.1037 0.756601C35.0983 -0.0970882 39.5181 0.378947 43.3594 1.6406Z" fill="black"/>
<path d="M29.4506 21.7749C31.1387 23.2167 32.2621 25.0566 32.5561 27.2754C32.5664 27.4412 32.5736 27.6073 32.5781 27.7734C32.584 27.8757 32.5899 27.978 32.5959 28.0833C32.6647 30.1381 32.0858 32.0124 30.8203 33.6328C30.7305 33.7536 30.7305 33.7536 30.639 33.8768C29.9155 34.7848 28.9066 35.3712 27.9213 35.9578C27.779 36.0428 27.779 36.0428 27.6339 36.1295C27.4471 36.2404 27.2594 36.3499 27.0708 36.4578C26.5843 36.7446 26.2416 36.9595 26.0156 37.5C25.9151 37.9172 25.8841 38.3052 25.8819 38.7337C25.8797 38.8555 25.8774 38.9773 25.875 39.1029C25.8711 39.357 25.8689 39.6113 25.8686 39.8655C25.8442 40.9044 25.8442 40.9044 25.4974 41.331C25.0257 41.7534 24.7054 41.7644 24.0879 41.7609C23.6064 41.693 23.4124 41.4845 23.0859 41.1328C22.822 40.6051 22.9372 39.8862 22.9341 39.2993C22.9328 39.1222 22.9304 38.945 22.9269 38.7679C22.8972 37.2613 23.0708 36.0353 24.0797 34.8523C24.6546 34.3032 25.3336 33.9155 26.0156 33.5156C27.6757 32.5291 28.8967 31.6973 29.414 29.7656C29.7552 28.2767 29.4614 26.6688 28.6766 25.3665C27.9137 24.2667 26.7554 23.4819 25.4296 23.2031C23.7275 23.1002 22.3399 23.2543 20.9765 24.375C19.8428 25.4246 19.41 26.576 19.2481 28.0817C19.1652 28.7379 18.9982 29.0712 18.5156 29.5312C18.1055 29.7406 17.6763 29.8099 17.2229 29.7166C16.7816 29.5474 16.5358 29.3386 16.289 28.9453C15.8702 27.419 16.4675 25.6064 17.1757 24.2606C18.3299 22.3592 20.0456 20.9593 22.1777 20.2881C24.7246 19.7221 27.3762 20.1861 29.4506 21.7749Z" fill="black"/>
<path d="M24.961 44.5312C25.3273 44.7272 25.593 44.9749 25.7813 45.3516C25.8417 45.831 25.8919 46.3167 25.6586 46.7528C25.3776 47.0925 25.1489 47.3201 24.7065 47.3758C23.7904 47.4119 23.7904 47.4119 23.3716 47.0654C22.933 46.593 22.9231 46.2779 22.9267 45.6505C22.9945 45.1689 23.2031 44.975 23.5547 44.6484C23.9912 44.4302 24.4858 44.4643 24.961 44.5312Z" fill="black"/>
</g>
<defs>
<clipPath id="clip0_31_396">
<rect width="60" height="60" fill="white"/>
</clipPath>
</defs>
</svg>
