<svg width="60" height="48" viewBox="0 0 60 48" fill="none" xmlns="http://www.w3.org/2000/svg">
<path d="M39.457 0.57423C38.8594 0.714855 30.1523 5.67189 30 5.95314C29.9414 6.07032 29.8828 6.28126 29.8828 6.42189C29.8828 6.75001 30.3867 7.2422 30.7383 7.2422C30.8789 7.2422 32.9766 6.12892 35.3789 4.76954C37.7812 3.41017 39.8672 2.28517 40.0195 2.28517C40.2305 2.28517 57.668 12.0586 58.0078 12.3633C58.0781 12.4219 57.3633 13.7109 57.2578 13.7109C57.1758 13.7109 51.9023 10.7461 44.0625 6.26954C41.543 4.82814 40.2656 4.16017 40.0195 4.16017C39.7734 4.16017 37.2773 5.51954 31.582 8.75392C27.1406 11.2852 23.332 13.4531 23.1211 13.5703L22.7461 13.793L22.3828 13.1719C22.1953 12.8203 22.0312 12.5039 22.0312 12.4453C22.0312 12.3867 23.332 11.6016 24.9258 10.6992C28.0664 8.91798 28.2891 8.73048 28.0195 8.09767C27.8555 7.68751 27.3867 7.4297 27.0234 7.54689C26.8945 7.59376 25.3359 8.44923 23.5781 9.44532C20.2383 11.3438 20.0391 11.5078 20.0391 12.2461C20.0391 12.7383 21.5273 15.3047 21.9258 15.5156C22.3477 15.7266 22.9805 15.7266 23.2734 15.5039C23.3906 15.4102 23.5312 15.3281 23.5898 15.3281C23.6367 15.3281 23.6719 18.5156 23.6719 22.418V29.5078H12.7148H1.75781V28.875C1.75781 28.0664 1.45312 27.6328 0.878906 27.6328C0.597656 27.6328 0.421875 27.7149 0.246094 27.9375C0 28.2422 0 28.3242 0 37.2891C0 46.043 0.0117188 46.336 0.234375 46.6992C0.351562 46.9102 0.597656 47.168 0.785156 47.2852C1.08984 47.4844 2.27344 47.4961 28.0664 47.4961C57.5508 47.4961 55.5234 47.543 56.0508 46.8047C56.2852 46.4766 56.3086 46.2774 56.3438 44.5664C56.3789 42.7852 56.3672 42.668 56.1328 42.3633C55.8516 42 55.2773 41.9297 54.8906 42.211C54.6914 42.3633 54.6562 42.5742 54.6094 44.0625L54.5508 45.7383L53.0039 45.7735L51.4453 45.8086V37.9805C51.4453 29.332 51.4688 29.6719 50.707 29.1094C50.3789 28.875 50.2383 28.8633 45.8203 28.8633C41.4023 28.8633 41.2617 28.875 40.9336 29.1094C40.1719 29.6719 40.1953 29.332 40.1953 37.9805V45.7969L32.8477 45.7735L25.4883 45.7383L25.4531 30.0117L25.4297 14.2852L29.0859 12.2109C31.1016 11.0625 34.3594 9.22267 36.3164 8.09767C38.2734 6.98439 39.9375 6.07032 40.0078 6.07032C40.0781 6.07032 43.3828 7.91017 47.3438 10.1602L54.5508 14.25L54.6094 26.7422C54.668 40.3828 54.6211 39.4688 55.3359 39.6445C55.5938 39.7149 55.7227 39.6563 56.0156 39.375L56.3672 39.0235V27.1758V15.3164L56.7188 15.5039C57.1406 15.7266 57.6914 15.7266 58.1016 15.5156C58.5 15.3164 60 12.7149 60 12.2344C60 11.8477 59.707 11.3203 59.3906 11.1211C59.25 11.0391 57.457 10.0078 55.3828 8.83595C53.3203 7.66407 49.2422 5.34376 46.3359 3.69142C41.8125 1.12501 40.3828 0.398449 39.9609 0.457043C39.9258 0.468761 39.7031 0.515636 39.457 0.57423ZM49.6875 38.1797V45.7969H45.8203H41.9531V38.1797V30.5625H45.8203H49.6875V38.1797ZM5.85938 32.4961V33.7266H3.80859H1.75781V32.4961V31.2656H3.80859H5.85938V32.4961ZM11.8125 32.461L11.7773 33.668H9.72656H7.67578L7.64062 32.461L7.60547 31.2656H9.72656H11.8477L11.8125 32.461ZM17.6953 32.4961V33.7266H15.6445H13.5938V32.4961V31.2656H15.6445H17.6953V32.4961ZM23.6719 32.4961V33.7266H21.5625H19.4531V32.4961V31.2656H21.5625H23.6719V32.4961ZM5.85938 36.6563V37.8281H3.80859H1.75781V36.6563V35.4844H3.80859H5.85938V36.6563ZM11.8359 36.6563V37.8281H9.72656H7.61719V36.6563V35.4844H9.72656H11.8359V36.6563ZM17.6953 36.6563V37.8281H15.6445H13.5938V36.6563V35.4844H15.6445H17.6953V36.6563ZM23.6719 36.6563V37.8281H21.5625H19.4531V36.6563V35.4844H21.5625H23.6719V36.6563ZM5.85938 40.8164V42.0469H3.80859H1.75781V40.8164V39.586H3.80859H5.85938V40.8164ZM11.8125 40.8399L11.8477 42.0469H9.72656H7.61719V40.8985C7.61719 40.2656 7.65234 39.7031 7.69922 39.6563C7.74609 39.6211 8.68359 39.5977 9.77344 39.6094L11.7773 39.6445L11.8125 40.8399ZM17.6953 40.8164V42.0469H15.6445H13.5938V40.8164V39.586H15.6445H17.6953V40.8164ZM23.6719 40.8164V42.0469H21.5625H19.4531V40.8164V39.586H21.5625H23.6719V40.8164ZM23.5547 44.8008V45.7969H12.6562H1.75781V44.8008V43.8047H12.6562H23.5547V44.8008Z" fill="#364E14"/>
<path d="M39.3867 9.82032C38.2852 10.0899 37.5 11.1211 37.5 12.3047C37.5 14.5313 39.9961 15.668 41.6836 14.2149C42.9727 13.1133 42.7852 10.9688 41.3437 10.125C40.7695 9.79688 39.9727 9.66798 39.3867 9.82032ZM40.4766 11.707C40.8516 12 40.8867 12.5274 40.5469 12.8672C40.0664 13.3477 39.2578 13.0195 39.2578 12.3633C39.2578 11.9297 39.3398 11.7891 39.668 11.6016C39.9961 11.4141 40.125 11.4258 40.4766 11.707Z" fill="#364E14"/>
<path d="M33.1875 12.6445C32.6484 12.8086 31.8399 13.6406 31.6641 14.2266C31.3359 15.3164 31.6172 16.2773 32.4492 16.9922C34.3711 18.6328 37.2188 16.7813 36.5156 14.3555C36.1172 12.9727 34.6524 12.2227 33.1875 12.6445ZM34.6875 14.5898C34.9453 14.918 34.9336 15.3633 34.6524 15.6445C34.1719 16.1133 33.2813 15.75 33.2813 15.082C33.2813 14.3203 34.2188 13.9922 34.6875 14.5898Z" fill="#364E14"/>
<path d="M44.9414 12.7383C43.957 13.1836 43.4297 13.9922 43.4297 15.0352C43.4297 17.332 46.1484 18.5039 47.7188 16.8867C48.5508 16.0313 48.7266 15.0235 48.2344 13.9688C47.6602 12.7266 46.1719 12.1758 44.9414 12.7383ZM46.5234 14.5078C47.0156 15 46.6523 15.832 45.9375 15.832C45.6797 15.832 45.4805 15.75 45.3281 15.5742C45.0586 15.2227 45.0586 14.9649 45.3633 14.5781C45.6562 14.2031 46.1836 14.168 46.5234 14.5078Z" fill="#364E14"/>
<path d="M9.73828 16.3242C8.96484 16.5469 8.51953 16.8164 7.94531 17.4024C7.24219 18.1289 6.97266 18.8438 6.97266 20.0157C6.97266 20.8711 7.01953 21.0938 7.28906 21.5977C7.46484 21.9141 7.69922 22.2891 7.81641 22.4297C8.0625 22.711 11.4023 25.6172 11.8359 25.9102C12.1758 26.1446 13.0547 26.168 13.4414 25.9571C13.582 25.875 14.5781 25.043 15.668 24.1055C18.1406 21.961 18.3398 21.668 18.3398 20.0157C18.3398 18.7266 18.0938 18.0703 17.3086 17.2852C16.2773 16.2539 14.4961 15.9024 13.2188 16.4766C12.6563 16.7227 12.6563 16.7227 12.1523 16.5C11.4375 16.1836 10.5 16.1133 9.73828 16.3242ZM11.8359 18.3047C12.5156 18.75 12.6563 18.75 13.5234 18.3164C14.4141 17.8711 14.6367 17.836 15.2461 18.0352C16.0898 18.3164 16.6406 19.0899 16.6406 19.9571C16.6406 20.7774 16.3828 21.1875 15.2578 22.1367C14.6953 22.6172 13.8867 23.3086 13.4531 23.6836L12.668 24.3633L10.9102 22.8282C9.9375 21.9844 9.05859 21.1641 8.95313 21.0235C8.50781 20.3438 8.60156 19.3242 9.17578 18.6797C9.86719 17.8828 10.9688 17.7305 11.8359 18.3047Z" fill="#364E14"/>
<path d="M38.8476 16.8868C37.7109 17.2735 36.75 18.0352 36.2812 18.9375C36.1758 19.1485 35.8828 19.3946 35.5781 19.5352C33.4336 20.5782 32.8945 23.3672 34.5117 25.1485C34.7461 25.418 35.2383 25.7813 35.6015 25.9571L36.2695 26.2852H40.0195H43.7695L44.4375 25.9571C45.1992 25.5821 45.8555 24.9024 46.207 24.1289C46.5469 23.3672 46.5351 22.1602 46.1836 21.3399C45.8789 20.6602 44.9883 19.7461 44.3672 19.4883C44.1211 19.3828 43.8633 19.1367 43.6758 18.8086C43.2656 18.1172 42.5273 17.4727 41.7305 17.1094C40.9453 16.7461 39.5859 16.6524 38.8476 16.8868ZM41.3789 18.9024C41.6367 19.0664 42.0234 19.4766 42.2344 19.8164C42.7031 20.5313 42.9023 20.7305 43.5469 21.0469C44.625 21.586 44.9883 22.5352 44.5078 23.5078C44.3086 23.918 44.1094 24.1289 43.7109 24.3282C43.1953 24.586 43.125 24.5977 39.832 24.5625L36.4805 24.5274L36.0703 24.211C35.543 23.8125 35.2148 23.0157 35.3203 22.4297C35.4258 21.8907 35.8828 21.3633 36.4922 21.0469C37.1367 20.7305 37.3359 20.5313 37.793 19.8282C38.4375 18.8203 39.1055 18.4688 40.2305 18.5391C40.7226 18.5742 41.0508 18.6797 41.3789 18.9024Z" fill="#364E14"/>
<path d="M28.6992 31.6758C28.5352 31.7696 28.2891 31.9922 28.1719 32.168C27.9609 32.4727 27.9492 32.7657 27.9492 36.3047C27.9492 39.8907 27.9609 40.1367 28.1836 40.4532C28.6055 41.0742 28.8281 41.1094 32.8945 41.1094C36.4219 41.1094 36.6445 41.0977 37.0078 40.875C37.6992 40.4532 37.7344 40.2188 37.7344 36.3047C37.7344 32.3907 37.6992 32.1563 37.0078 31.7344C36.6445 31.5117 36.4336 31.5 32.8125 31.5C29.7539 31.5117 28.9453 31.5469 28.6992 31.6758ZM35.9766 36.3047V39.3516H32.8125H29.6484V36.3047V33.2578H32.8125H35.9766V36.3047Z" fill="#364E14"/>
</svg>
